<mxfile host="app.diagrams.net" modified="2023-11-21T04:17:03.823Z" agent="Mozilla/5.0 (Windows NT 10.0; Win64; x64) AppleWebKit/537.36 (KHTML, like Gecko) Chrome/119.0.0.0 Safari/537.36" etag="G2gBK8stQVhIbbvuT2KR" version="22.1.3" type="github">
  <diagram name="Page-1" id="519WWfWf5cagxCH0W8bk">
    <mxGraphModel dx="1050" dy="566" grid="1" gridSize="10" guides="1" tooltips="1" connect="1" arrows="1" fold="1" page="1" pageScale="1" pageWidth="850" pageHeight="1100" math="0" shadow="0">
      <root>
        <mxCell id="0" />
        <mxCell id="1" parent="0" />
        <mxCell id="ZROLAFJUCEpGGBxkQ6_s-12" value="" style="shape=image;verticalLabelPosition=bottom;labelBackgroundColor=default;verticalAlign=top;aspect=fixed;imageAspect=0;image=data:image/png,iVBORw0KGgoAAAANSUhEUgAABDgAAAisCAYAAACtR1KuAACAAElEQVR4XuzdaZBd5XngcfJlUv46lQ8znqlMzSQpZzLjSeyKy8ETF/F4XGNMwKzGC2BjgxGLQCwy+yZFLGITCCQWsQgsEDJGSI0xm1mFbOMdB2diD6UMNk7sOCYkjh3CRO/0c/C9uf2eK6m7dW93P31/XfUroO+55y70PdXn3+953z32mMWvscfLr23aUt4z7oSxrWXl5mfKw2PPlOfG/7lt3E/GvTquAAAAALMuztHjXH3bL8/dH45z+Tinj3P7OMevz/vn7deGreUNY0+XfTdvKVeN+9b4m7G9zxsGAAAA5LO9OdcfP+ePc/9oAHUXSP1VSvmVzVvLXmPPlJvHX+wrfd4AAAAAYP55pWkBW8te0QbqXpDm64EHyq+ObSkLxl/QC31eJAAAADA6XohGEK2g7gdz9iuGoGzeUk4ef/Iv9XlBAAAAwOh6KZrBnL98pZlf4/UJQusXAAAAANCxLRpC3RVm/WtsS/n1sWfKpj5PGAAAAKCvaAnRFOrOMCtfm7aUA8ef1Mv1kwQAAACYhJejLdS9Yca+Njxf/tX4k7imzxMDAAAAmKprojXU/WGoXw9uLf967JnyTJ8nAwAAADAt0RqiOdQdYihfD3yp/PvNW8vz9ZMAAAAA2G1by/PRHuoeMdCvTVvKm8Yf7MXWgwMAAAAMzovRIOouMZCvZuSGuAEAAADMjBcHPpIjrn9xWQoAAAAwo7aW5wc2J0fMYGpCUQAAAGA2RJMYyOoqmy0FyyzZ+NRr5bNP/GPZ8IWflQ2P/n3XZ77wD+XeJ14t9z39/1r3AQAAdi1+p169/s/L0qsfLecuH2uJ78ftsV193+xu2fhi63ukcE3dK6b0tWlLObDPTmFoNj75T2X9w6+UtZv/sqy849vl4lVPlTMv+mw57YI7G4uXrC/nLN9cLr/py80Bd90DP2kCiNgBAAA7FqFi+Q1by6Jzbiv7Hbqo/K/3f3LSYvu4X9w/e/CI1xHnE/X3ySEaRd0tJvU1tqX8+vgOXq53CMMQozXWff5vyopbv94cdA454qzWgbX2vgOPK4cfs6ycedG95Ya7v9eEjk1btrf2DQAAoyr+KBi/X9e/S++O2F/st36sua7zPggcqb0craLuF7v8GnumbOqzMxioTU//c7n7kb8r1617viw49brWwXOy3n/oyeXsS+4rt2z8fnNZS/04AAAwSiJAfPyEy1u/Nw9S7D9L6OiNPAJHbtEq6n6x06+xp8u+9U7mgziZvuexn8/KX/ljhEIM54pLMOrbdsdsvqbdFc/9jvt/VE5fuqH88cELWwfMqXrv/seUD3z07HLZjV9s3pP68QAAYL6LS7iHHTZqx562ak5fulKPYBE48otmUXeMvl8btpY3jN9hW72DrOIE+vwrHmguZdj7gGObH+h9DjqhHLHg4rJkxcPNAaC+z6DE5DUxqiAeq/cDddBhp5djF69uTsRj0sz6frsym69pUGLOjBhtsfDMNa0D5O7a/4OnlAuveqgZGVI/LgAAzFfLr39myvNrDEo8bjx+/ZxmWx03gsAxL2zbsLW8oe4Zra+xZ8opfe6cTowOiJPcfQ46vvUD3WvfQ05sQsMgR0DECh8xKqF+rH4OPvyMcvXab7b20c9svqZBitcRceMTJ17Zeu6DEu9BTEpqJAcAAKOg34n8bIjnUT+32bKj90TgmCe2lJPrnjHh64EHyq+Ob/hS647JxIl9v8Bw6MfOaU6qDz78zNZty1Y+1trPdMQJdb8hYYceeW755MnXlI8dv7zs+4GTWrdfftOXWvvqNZuvaZAibtw+9lflhDNuaj3fQYuRHDGixZwcAADMV3FpyEeOXtr6XXg2xfOZ7UtWdhQ3gsAxb7wUDaPuGt2vsS1lQZ87pXPlzV+Z8AN89KKrm8tFOiMa4iT7unXfKR/6+PkTtrt+/Xdb+5qK2P8p5396wj5PPX9ds+Rp73YRQSI+dC4vCTEqY+3mH7b22TFbr2nQ4rKR3lCz9/4LmtEWvc95d8Q8HHG5Tue/D/zw4nLFmmfn7GgWAACYrrkYNzpmM3LsLG4EgWP+iIZRd43mq5TyK+MbvFDfIZv4a33McdH54Y0QsKO/4N/54E8nBIEYXRGhoN5uslbd+WetD87OTqxjSdTe7c+86LOtbcJsvqZBiolWY7WUzoSiETdiZMuic9YOJHJE3DjwI58qx3/qhmb0Rud7HzlqSfO+1M8HAAAy6zdyfCbE49bPZa7oFzdOOvvWCe+VwDGvvBAto+4be2zeWvbqs3E6V97y1Qk/zDsbFRHihLt3+4gU9TaTFR+czn4iMkxmxZTepVFjqdN+QWQ2X9MgxeSnndfbWfEk5h+JUR0x0mV3JkSKWHLIEWeV8y7/XDNC5oIrH+zOVRL7Pe+y+5uJTevnBAAAWa247Rut34tnwlwNHP0WMIhztLhN4JjHtpa96r4Rk4ve3Nowod5LROJkur69FkGhd5WTuHyi3mYyYpRE79waF1zx+dY2/cRMw70fwH6rqszWaxqkiD29I1ZixManlt7dvT2Gr8WBZjrLxUYsiREul6x+uru/GLFx9EkruttE/KgvFQIAgOyWXv1o6/fjYZuLgSPmJqyfZyduBIFj/oqWMSFubHh9adhX6g0z6v3Bjg97fXs/S1c80r1P3L++vSNWJolLKuJ6shgl0XtbnFD3fpgmuzJKPdqi3xKvw3xNM2X9w690R7hEkPjgkeeVW+/7Qff2iDIRICLMvD6PxvFNBOmdp6RXfD+CUmz3vgOPayZw7R0xE/8eI1/ittg+RsfEqI76eQEAQHa9I8lnwlwLHLuKG0HgmNde2dC7ZOzY02XfPhulE6Moen+or7rla61t+qnnzohLJupt4gS992R7/w+dOuGSh7gsIh6v466HXm7to58IIb2PXS9rOszXNJMiXsQoinguMQlofcC55/FfdKNMhI3jFl/fjDyJA1FEpVglJsQ+4vKfjy+8opyx7J5yzCkru3NvrLz9uQn7jFh0+DHLmn1G6IhtXaYCAMB800w2etSSCb//D9NcChyTiRtB4Jjfoml0A8fmLeWqeoOM4iS59wf7mrXfam3Tz22bXppwv1s2fr+1zR2f+3Hrg7OjiT6n4tzlY939xXKv9e3DfE0zJSYXXXnHt7vPJVY2iVVhIrrEwfj10Rs/LB8+6sJmLo0jFlzUDTJxW1y2s+aebY14HZ33PWLFjRv+T3N5SsSnOGj1juKIffe+vzHnR78RMgAAkF387tt7yfww1YHjyOMva/4AHHa0cMIwTDZuBIFjnttSruoNHN9qbZBQPdrh8pu+1Nqmnzjp7b1fnDTX28SJdkyE2dlmEJc7xIl6jEro7PPS1Vta2wzzNc2UeJ0Xr3qq+1xiREaM6Fh27ePjr+fL3ctJYv6NGKFx8XVPNvGi34SrHXHbvU+8WtY/9Lfl7Evua0Z9xMiO3pDThJXbn+s+7sGHn1FuuPt7rX0BAMB8cMvGFyecAwxLHTg+9IkLureddsGdrec1DP3iRqw2WW/XIXDMc1vKt5q4MfZ4+bXxb2xvbZBU79Cssy7e2Lq9nzvu/9GED8aOVh2Jk+oIB5O9/GRXlqx4uPuYcYnFjtaJHuZrmgkbvvCz5nKSznOJEFFvE+9pLOkUq53E9reP/VXzz3q7jriUJ+LI9eu/24yuifgUtbgeVRMjQzqPe8CHTyvLb9ja2hcAAMwX9SIGwzDbgaNf3Air1/95a9sOgWPe2x5tY49NW8p7+tyY1uIl67s/uPGDP5k5F2I0xoQPxl3/u7XNoEVd7SxjGuJAVG/TkeU17UhcbhIHungeMV/GYZ/8k9Y2veKynLik5dMP/HX3e50RG53XHgEkRmQsvvCu1v1j5EbnUpUYKdJ5n2PIXIwaqbcHAID5JFYr7D0XGLTZDBw7ihtB4Bht0Tb2GP+XhfUNmV376T+d8EO+q0s66tVPwrAv54g5JWK+ic7jHbt4dXMpSr1dR4bXtDO9gSNiw/Gn39jaZlcibsQcHHFJSvx3jHaJS1nqkSkRQCKMRECK/45/7xxwBQ4AAEbFglOva50TDMpsBY6dxY0gcIy2TVvKCTGC49r6hszir/e98WC/Qxc1J8b1diFGAXRW2ei15rN/0dp2UGJkwTGnXNt9rJhwM4JEvd2E+8zx17QrEXRipEXnucQlKhF04jKTGK1Rb99PhIuIG/UlKLUY6RH77UxS2nuJSgSOi659onUfAACYb4a5sspsBI5dxY0gcIy2aBt7jG0pj9Q3ZNe7YkeIUQPxQxwTTMbqInG5RszX0HuJSK/eSyMGKU7qeycqjZU/Yg6Jert+5uprmow4uMZz7TyXDx55XhM9Vtz2jdYIjEGK2NE70VJn9ZZ6OwAAmI/id+FhrKwy04FjMnEjCBwj7+E9xp4pz/W5Ib2lKx5p/cD3EyMjrrrlaxO+FyMA6v0NQu+SpWFXl5rU5uJrmoy4vCRea+e5xMoxnUtIOmKUSsyXMZUJXCNgxIiYHY0Cef1xv9x93FihZTaXywUAgJkWJ/31+cLumsnAMdm4EQSO0RZtI+bg2FbfMF9cvfabzUSU9Q9+R1w2ESMJekdHxBKm9X4GIS6N6H3s6S4zO5de02TF5SVxsHnfgcc1z6ffXBgRN/b/4CnllPPu6H6vEzB6t+t8r/HUa02w6IwCqbevJzeNIXq7usQFAADmm0GvrFIvkDCswDGVuBEEjpG3LQLHT/rcMG/ECW+c7EdQiNmEY5nVi1c91Sz32tlm2crHuj/sJ519a2sfu2vFrV+f8ME786J7m5PxervJmguvaariucXqKfF8InR88uRrJsSIGLkRceOS1U93vxcxor6EJ7638vbnmtBTP0bv9vH+xqU7MWojHnOfg04oJ555c+s+AAAwCuKcoA4C09Hv3GIYgWOqcSMIHCPvJxE4Xu1zw0g5etHV3R/2ukburjjh7p0X45TzP73TFVMGZZivaTo2fOFnTdjpPKeDDju9XLfu+dZ2vWLujrjEpPd7EUJiRuijTrxqp9vHZSu9l/Qc8OHTymU3frF1HwAAGBW7O+lo3L/eZxh04JhO3AgCx8h7NQJH/c2Rcsf9P5rwoegdBbG74vKJuByjs+8Tzripuayi3m7QhvmapisuU4nY05nkKKLPcYuvn/LcIK/P1fHDcut9P2jd1hEBKeb46Kw8s/f+C8oRCy7urqwCAACjKP4gGPPh1WFgMuJ+cf96n2GQgWO6cSMIHIx84Fh0ztruD3oEiPr26Yqo8IGPnt3dd4yomKn5H4b1mnZXs1zskvXNfBjx3GLOjSUrHu6+L3FZSfx774GzWfb18V9MevLR2D5WjDn53Nu778GBH/nUlCd0BQCA+Wg6K6vE9vUiAb0GFTh2J24EgYORDhy981SENfdsa20zHTFS4PBjlnX3+7HjLm0u0ai3G4ZhvaZBeH3Z1u9PCD+xdGtcVhJhI+bkiFEevZelxPeu/fSfNvOMdPaxo1EwcdudD/60nHPppu7+O/N9zFRcAgCAuW6qk47u6pL3Refc1gSEsPTqR1u3T8buxo0gcDCSgSNGCJx9yX0TPgyD+iGPE+mjT1rR3W9cJjHZ0Qe7Y5ivaZDi/Vl+w9ay36GLmucYozkieMT8GJO5XCWCR7+lXuOylBi5EXHjjw9e2Ow7Lk2JiU1v/MwLre0BAGCUxblCHQj6mYlzikHEjSBwMBKBI/6yH6Mq4kQ3Vh6przs7dvHqHY4K6BUn4bHk6keOXtp3gszYR1wS0tlvrOBxx+d+3NpuEAb1mmZDxJg4qOx7yInd5xuXq8TriBEY9dKwveJylc6ysKFzCUsMmeu9LCXixgePPK/vaisAAMCuV1bpt2LKoA0qbgSBg3kdOOIv+rF6xt4HHNv64e+IZVYnEwLWP/zKhP3E5KExcWbvNhde9dCEfcflF3GpylTFsrL143cM8jXNpogzp56/rjuSI8TEozFXyZW3fLWZwyRCSL/XEVHj3idebeb0iKVgY7WUzoSioRM3pjs8DgAARkH8vr2jlVXi+zuaVHRQBhk3gsDBvA4c9WoiveJEOj4AcbJc36+fGIlR76Oe1+H0pRta20zHzpYzHeRrmm1xwDx3+VgTgjoTj4aYN+OIBRc1t628/blm1ZS1m/+yiTvx7zFaI+bpiAmMYpRM73sQ943LUozcAACAXYs/LNaTjsZ/T2UlxgWnXtdMNBrOu/xzrdv7GXTcCDHSvjMXSK33D6sCx/w1EoFjn4NOaH7YF565pvlr/833/t8pR4DYPkYcdD4UcTlFvc1MBo5BvKa5ICLRFWuebQpx70GnFqM7ekdp1GLURqyWEhOKmnMDAAAmL/6A2Pu79c5WTOlnqquoDCNuTIXAMX/N68ARJ/wx+WT9/emK/UXJnIlJQ3dk0K9pLuisfnLeZfc3IzLef+jJzUiM+kBUi1EfEXrikp0jFlzcLAVbj6oBAAB2rbOyyq5WTOlnKoFjtuNGEDjmr3kdOMgl5jSJS1FidEyMxIjVVQ4+/IwmYMScJx1xSUtMqhoH0hPPvLkZ8RJzetT7AwAAJm/Fbd9ofW8y4rKUCBvhypu/0rq9I26rLx0ZpJiLMOLFruxsrg5yEziYkyJ2xGiZG+7+XrOs7LJrH29cdO0TzYExhs2JGgAAAHQIHAAAAEB6AgcAAACQnsABAAAApCdwAAAAAOkJHAAAAEB6AgcAAACQnsABAAAApCdwAAAAAOkJHAAAAEB6AgcAAACQnsABAAAApCdwAAAAAOkJHAAAAEB6AgcAAACQnsABAAAApLfHG//dfywAAAAAmQkcAAAAQHoCBwAAAJCewAEAAACkJ3AAAAAA6QkcAAAAQHoCBwAAAJCewAEAAACkJ3AAAAAA6QkcAAAAQHoCBwAAAJCewAEAAACkJ3AAAAAA6QkcAAAAQHoCBwAAAJCewAEAAACkJ3AAAAAA6QkcAAAAQHoCBwAAAJCewAEAAACkJ3AAAAAA6QkcAAAAQHoCBwAAAJCewAEAAACkJ3AAAAAA6QkcAAAAQHoCBwAAAJCewAEAAACkJ3AAAAAA6QkcAAAAQHoCBwAAAJCewAEAAACkJ3AAAAAA6QkcAAAAQHoCBwAAAJCewAEAAACkJ3AAAAAA6QkcAAAAQHoCBwAAAJCewAEAAACkJ3AAAAAA6QkcAAAAQHoCBwAAAJCewAEAAACkJ3AAAAAA6QkcAAAAQHoCBwAAAJCewAEAAACkJ3AAAAAA6QkcAAAAQHoCBwAAAJCewAEAAACkJ3AAAAAA6QkcAAAAQHoCBwAAAJCewAEAAACkJ3AAAAAA6QkcAAAAQHoCBwAAAJCewAEAAACkJ3AAAAAA6QkcAAAAQHoCBwAAAJCewAEAAACkJ3AAAAAA6QkcAAAAQHoCBwAAAJCewAEAAACkJ3AAAAAA6QkcAAAAQHoCBwAAAJCewAEAAACkJ3AAAAAA6QkcAAAAQHoCBwAAAJCewAEAAACkJ3AAAAAA6QkcAAAAQHoCBwAAAJCewAEAAACkJ3AAAAAA6QkcAAAAQHoCBwAAAJCewAEAAACkJ3AAAAAA6QkcAAAAQHoCBwAAAJCewAEAAACkJ3AAAAAA6QkcAAAAQHoCBwAAAJCewAEAAACkJ3AAAAAA6QkcAAAAQHoCBwAAAJCewAEAAACkJ3AAAAAA6QkcAAAAQHoCBwAAAJCewAEAAACkJ3AAAAAA6QkcAAAAQHoCBwAAAJCewAEAAACkJ3AAAAAA6QkcAAAAQHoCBwAAAJCewAEAAACkJ3AAAAAA6QkcAAAAQHoCBwAAAJCewAEAAACkJ3AAAAAA6QkcAAAAQHoCBwAAAJCewAEAAACkJ3AAAAAA6QkcAAAAQHoCBwAAAJCewAEAAACkJ3AAAAAA6QkcAAAAQHoCBwAAAJCewAEAAACkJ3AAAAAA6QkcAAAAQHoCBwAAAJCewAEAAACkJ3AAAAAA6QkcAAAAQHoCBwAAAJCewAEAAACkJ3AAAAAA6QkcAAAAQHoCBwAAAJCewAEAAACkJ3AAAAAA6QkcAAAAQHoCBwAAAJCewAEAAACkJ3AAAAAA6QkcAAAAQHoCBwAAAJCewAEAAACkJ3AAAAAA6QkcAAAAQHoCBwAAAJCewAEAAACkJ3AAAAAA6QkcAAAAQHoCBwAAAJCewAEAAACkJ3AAAAAA6QkcAAAAQHoCBwAAAJCewAEAAACkJ3AAAAAA6QkcAAAAQHoCBwAAAJCewAEAAACkJ3AAAAAA6QkcAAAAQHoCBwAAAJCewAEAAACkJ3AAAAAA6QkcAAAAQHoCBwAAAJCewAEAAACkJ3AAAAAA6QkcAAAAQHoCBwAAAJCewAEAAACkJ3AAAAAA6QkcAAAAQHoCBwAAAJCewAEAAACkJ3AAAAAA6QkcAAAAQHoCBwAAAJCewAEAAACkJ3AAAAAA6QkcAAAAQHoCBwAAAJCewAEAAACkJ3AAAAAA6QkcAAAAQHoCBwAAAJCewAEAAACkJ3AAAAAA6QkcAAAAQHoCBwAAAJCewAEAAACkJ3AAAAAA6QkcAAAAQHoCBwAAAJCewAEAAACkJ3AAAAAA6QkcAAAAQHoCBwAAAJCewAEAAACkJ3AAAAAA6QkcAAAAQHoCBwAAAJCewAEAAACkJ3AAAAAA6QkcAAAAQHoCBwAAAJCewAEAAACkJ3AAAAAA6QkcAAAAQHoCBwAAAJCewAEAAACkJ3AAAAAA6QkcAAAAQHoCBwAAAJCewAEAAACkJ3AAAAAA6QkcAAAAQHoCBwAAAJCewAEAAACkJ3AAAAAA6QkcAAAAQHoCBwAAAJCewAEAAACkJ3AAAAAA6QkcAAAAQHoCBwAAAJCewAEAAACkJ3AAAAAA6QkcAAAAQHoCBwAAAJCewAEAAACkJ3AAAAAA6QkcAAAAQHoCBwAAAJCewAEAAACkJ3AAAAAA6QkcAAAAQHoCBwAAAJCewAEAAACkJ3AAAAAA6QkcAAAAQHoCBwAAAJCewAEAAACkJ3AAAAAA6QkcAAAAQHoCBwAAAJCewAEAAACkJ3AAAAAA6QkcAAAAQHoCBwAAAJCewAEAAACkJ3AAAAAA6QkcAAAAQHoCBwAAAJCewAEAAACkJ3AAAAAA6QkcAAAAQHoCBwAAAJCewAEAAACkJ3AAAAAA6QkcAAAAQHoCBwAAAJCewAEAAACkJ3AAAAAA6QkcAAAAQHoCBwAAAJCewAEAAACkJ3AAAAAA6QkcAAAAQHoCBwAAAJCewAEAAACkJ3AAAAAA6QkcAAAAQHoCBwAAAJCewAEAAACkJ3AAAAAA6QkcAAAAQHoCBwAAAJCewAEAAACkJ3AAAAAA6QkcAAAAQHoCBwAAAJCewAEAAACkJ3AAAAAA6QkcAAAAQHoCBwAAAJCewAEAAACkJ3AAAAAA6QkcAAAAQHoCBwAAAJCewAEAAACkJ3AAAAAA6QkcAAAAQHoCBwAAAJCewAEAAACkJ3AAAAAA6QkcAAAAQHoCBwAAAJCewAEAAACkJ3AAAAAA6QkcAAAAQHoCBwAAAJCewAEAAACkJ3AAAAAA6QkcAAAAQHoCBwAAAJCewAEAAACkJ3AAAAAA6QkcAAAAQHoCBwAAAJCewAEAAACkJ3AAAAAA6QkcAAAAQHoCBwAAAJCewAEAAACkJ3AAAAAA6QkcAAAAQHoCBwAAAJCewAEAAACkJ3AAAAAA6QkcAAAAQHoCBwAAAJCewAEAAACkJ3AAAAAA6QkcAAAAQHoCBwAAAJCewAEAAACkJ3AAAAAA6QkcAAAAQHoCBwAAAJCewAEAAACkJ3AAAAAA6QkcAAAAQHoCBwAAAJCewAEAAACkJ3AAAAAA6QkcAAAAQHoCBwAAAJCewAEAAACkJ3AAAAAA6QkcAAAAQHoCBwAAAJCewAEAAACkJ3AAAAAA6QkcAAAAQHoCBwAAAJCewAEAAACkJ3AAAAAA6QkcAAAAQHoCBwAAAJCewAEAAACkJ3AAAAAA6QkcAAAAQHoCBwAAAJCewAEAAACkJ3AAAAAA6QkcAAAAQHoCBwAAAJCewAEAAACkJ3AAAAAA6QkcAAAAQHoCBwAAAJCewAEAAACkJ3AAAAAA6QkcAAAAQHoCBwAAAJCewAEAAACkJ3AAAAAA6QkcAAAAQHoCBwAAAJCewAEAAACkJ3AAAAAA6QkcAAAAQHoCBwAAAJCewAEAAACkJ3AAAAAA6QkcAAAAQHoCBwAAAJCewAEAAACkJ3AAAAAA6QkcAAAAQHoCBwAAAJCewAEAAACkJ3AAAAAA6QkcAAAAQHoCBwAAAJCewAEAAACkJ3AAAAAA6QkcAAAAQHoCBwAAAJCewAEAAACkJ3AAAAAA6QkcAAAAQHoCBwAAAJCewAEAAACkJ3AAAAAA6QkcAAAAQHoCBwAAAJCewAEAAACkJ3AAAAAA6QkcAAAAQHoCBwAAAJCewAEAAACkJ3AAAAAA6QkcAAAAQHoCBwAAAJCewAEAAACkJ3AAAAAA6QkcAAAAQHoCBwAAAJCewAEAAACkJ3AAAAAA6QkcAAAAQHoCBwAAAJCewAEAAACkJ3AAAAAA6QkcAAAAQHoCBwAAAJCewAEAAACkJ3AAAAAA6QkcAAAAQHoCBwAAAJCewAEAAACkJ3AAAAAA6QkcAAAAQHoCBwAAAJCewAEAAACkJ3AAAAAA6QkcAAAAQHoCBwAAAJCewAEAAACkJ3AAAAAA6QkcAAAAQHoCBwAAAJCewAEAAACkJ3AAAAAA6QkcAAAAQHoCBwAAAJCewAEAAACkJ3AAAAAA6QkcAAAAQHoCBwAAAJCewAEAAACkJ3AAAAAA6QkcAAAAQHoCBwAAAJCewAEAAACkJ3AAAAAA6QkcAAAAQHoCBwAAAJCewAEAAACkJ3AAAAAA6QkcAAAAQHoCBwAAAJCewAEAAACkJ3AAAAAA6QkcAAAAQHoCBwAAAJCewAEAAACkJ3AAAAAA6QkcAAAAQHoCBwAAAJCewAEAAACkJ3AAAAAA6QkcAAAAQHoCBwAAAJCewAEAAACkJ3AAAAAA6QkcAAAAQHoCBwAAAJCewAEAAACkJ3AAAAAA6QkcAAAAQHoCBwAAAJCewAEAAACkJ3AAAAAA6QkcAAAAQHoCBwAAAJCewAEAAACkJ3AAAAAA6QkcAAAAQHoCBwAAAJCewAEAAACkJ3AAAAAA6QkcAAAAQHoCBwAAAJCewAEAAACkJ3AAAAAA6QkcAAAAQHoCBwAAAJCewAEAAACkJ3AAAAAA6QkcAAAAQHoCBwAAAJCewAEAAACkJ3AAAAAA6QkcAAAAQHoCBwAAAJCewAEAAACkJ3AAAAAA6QkcAAAAQHoCBwAAAJCewAEAAACkJ3AAAAAA6QkcAAAAQHoCBwAAAJCewAEAAACkJ3AAAAAA6QkcAAAAQHoCBwAAAJCewAEAAACkJ3AAAAAA6QkcAAAAQHoCBwAAAJCewAEAAACkJ3AAAAAA6QkcAAAAQHoCBwAAAJCewAEAAACkJ3AAAAAA6QkcAAAAQHoCBwAAAJCewAEAAACkJ3AAAAAA6QkcAAAAQHoCBwAAAJCewAEAAACkJ3AAAAAA6QkcAAAAQHoCBwAAAJCewAEAAACkJ3AAAAAA6QkcAAAAQHoCBwAAAJCewAEAAACkJ3AAAAAA6QkcAAAAQHoCBwAAAJCewAEAAACkJ3AAAAAA6QkcAAAAQHoCBwAAAJCewAEAAACkJ3AAAAAA6QkcAAAAQHoCBwAAAJCewAEAAACkJ3AAAAAA6QkcAAAAQHoCBwAAAJCewAEAAACkJ3AAAAAA6QkcAAAAQHoCBwAAAJCewAEAAACkJ3AAAAAA6QkcAAAAQHoCBwAAAJCewAEAAACkJ3AAAAAA6QkcAAAAQHoCBwAAAJCewAEAAACkJ3AAAAAA6QkcAAAAQHoCBwAAAJCewAEAAACkJ3AAAAAA6QkcAAAAQHoCBwAAAJCewAEAAACkJ3AAAAAA6QkcAAAAQHoCBwAAAJCewAEAAACkJ3AAAAAA6QkcAAAAQHoCBwAAAJCewAEAAACkJ3AAAAAA6QkcAAAAQHoCBwAAAJCewAEAAACkJ3AAAAAA6QkcAAAAQHoCBwAAAJCewAEAAACkJ3AAAAAA6QkcAAAAQHoCBwAAAJCewAEAAACkJ3AAAAAA6QkcAAAAQHoCBwAAAJCewAEAAACkJ3AAAAAA6QkcAAAAQHoCBwAAAJCewAEAAACkJ3AAAAAA6QkcAAAAQHoCBwAAAJCewAEAAACkJ3AAAAAA6QkcAAAAQHoCBwAAAJCewAEAAACkJ3AAAAAA6QkcAAAAQHoCBwAAAJCewAEAAACkJ3AAAAAA6QkcAAAAQHoCBwAAAJCewAEAAACkJ3AAAAAA6QkcAAAAQHoCBwAAAJCewAEAAACkJ3AAAAAA6QkcAAAAQHoCBwAAAJCewAEAAACkJ3AAAAAA6QkcAAAAQHoCBwAAAJCewAEAAACkJ3AAAAAA6QkcAAAAQHoCBwAAAJCewAEAAACkJ3AAAAAA6QkcAAAAQHoCBwAAAJCewAEAAACkJ3AAAAAA6QkcAAAAQHoCBwAAAJCewAEAAACkJ3AAAAAA6QkcAAAAQHoCBwAAAJCewAEAAACkJ3AAAAAA6QkcAAAAQHoCBwAAAJCewAEAAACkJ3AAAAAA6QkcAAAAQHoCBwAAAJCewAEAAACkJ3AAAAAA6QkcAAAAQHoCBwAAAJCewAEAAACkJ3AAAAAA6QkcAAAAQHoCBwAAAJCewAFAWm/b871lv0MWlqNOvKKcvvTucsmqJ8uqdd8pazf/sGx49O/KxqdeK5uf2T6uAI3tzeciPh/xOYnPS3xu4vMTn6P4PMXnqv6sAUAGAgcAKfzmm95S9jlwQTnxrJvLilu/9st4UZ+8AYMQn6/4nMXnLT538fmrP5MAMNcIHADMWW99+3vKkcddWq5Y82zrBAyYWfE5jM9jfC7rzyoAzAUCBwBzSvyl+LCjLmz+elyfYAFzQ3w+43NqZAcAc4nAAcCc8I69DmjmATBnBmSyvfncxue3/kwDwEwTOACYVe/e+7CybOVjfU6cgEzicxyf5/ozDgAzReAAYFa8890HCxswD8XnOj7f9WceAIZN4ABgRv3Om/f85aUo7RMjYP6Iz3l83utjAAAMi8ABwIyJSQnveeznrRMhYH6Kz3t87utjAQAMg8ABwNDFspKXrHqydfIDjIb4/FteFoBhEzgAGKoPHHFm2fjUa60THmC0xHEgjgf1MQIABkXgAGBoFl+wrnWSA4y2OC7UxwoAGASBA4CBe/PvvbNcsebZ1okNQIjjQxwn6mMHAOwOgQOAgYrlIddu/mHrhAagVxwnLCcLwCAJHAAMzHvff7T5NoBJi+NFHDfqYwkATIfAAcBA7HfIwtbJC8BkxPGjPqYAwFQJHADsNnED2F0iBwC7S+AAYLfE8PL6RAVgOlyuAsDuEDgAmLaYINCcG8CgxPHExKMATJfAAcC0xBKPVksBBi2OK5aQBWA6BA4ApuWKNc+2TkwABiGOL/UxBwB2ReAAYMoWX7CudUICMEhxnKmPPQCwMwIHAFPygSPObJ2IAAxDHG/qYxAA7IjAAcCkvfXt7zGpKDBj4ngTx536WAQA/QgcAEzaJauebJ2AAAxTHHfqYxEA9CNwADAphx11YevEA2AmxPGnPiYBQE3gAGCXfufNe5Z7Hvt566QDYCbE8SeOQ/WxCQB6CRwA7NLpS+9unXAAzKQ4DtXHJgDoJXAAsFPvfPfBrRMNgNkQx6P6GAUAHQIHADu1bOVjrZMMgNkQx6P6GAUAHQIHADv07r0Pa51gAMymOC7VxyoACAIHADtk9AYw1xjFAcCOCBwA9PWOvQ5onVgAzAVxfKqPWQAgcADQl5VTgLnKiioA9CNwANDym296y/hJxPbWSQXA3LC9OU7Vxy4ARpvAAUDLYUdd2OeEAmDuiONUfewCYLQJHAC0rLj1a62TCYC5JI5T9bELgNEmcAAwwVvf/p7WiQTAXBTHq/oYBsDoEjgAmODI4y5tnUQAzEVxvKqPYQCMLoEDgAmuWPNs6yQCYC6K41V9DANgdAkcAHS9vnpK+ySCHG7d/Ndl5Z3b/sVd21rbMDXe07nPaioAdAgcAHTtc+CC1skD/W3asr1s+MIvyl0P/6zc++Rrrdtnw+En31X+zX/7WNd/+P1jWtvwL+566O/LklVfL0tXf72sf/QfWrcH7+ncF8et+lgGwGgSOADoOvGsm1snD7xu09Pby1W3f7cccer6sud+S8obf/fjE0583/w/FpcDj1lTLrzuq7MWPJyMT96tYz8pb3rnSd336j/vdUq5/YGXW9t5T+e+OG7VxzIARpPAAUCX5WH7u3rdC+Xt+14w4UR3Z/7ruxaXP7n+m639DJuT8clbcO5Y6//bwiUPtrbzns59losFoEPgAKBr41OzM/JgLlu8/MnWifBkHXXGxuZSlnqfw+JkfPKOPe/+1v+vk5Y+3NrOezr3xXGrPpYBMJoEDgAab9vzva0Th1EXczPUJ8Edf3jAsrL/0TeWg45ZU9516PLyxrd8orVNWLTskdZ+h8XJ+OSt/dxPy39512nd9+p3/+cZZd2Dr7S2857mEMev+pgGwOgROABo7HfIwtZJwyj7zOP/WN70h4taweLQ49eWOx7429b2Mdno0WfdV/7t7x05YfsIHzdv+nFr+2FwMj41MUns8lu+Uy679TvN/+/69uA9zSGOX/UxDYDRI3AA0DjqxCtaJw2jLCYLreNGjNbY1SUnJy15qHW/mJi03m4YnIwPnvc0hzh+1cc0AEaPwAFA4/Sld7dOGkbZxxZvaIWK6+5+sbVdbeOTr01YnSP89jsXtbYbBifjg+c9zSGOX/UxDYDRI3AA0Lhk1ZOtk4ZRFqM16sARl6HU2/UTc3Ps7L6nX/ZU+ehpG7oWXvj51j56rb3/byZsH1b1iS07OhmP6HLu1V8qex+xsplr4j/9wfHl9993bvMaL77xuWYJ3Hpf/Xz2iX8qF1z7lXLI8bc19/+Nd5xQfuu/n9isMLPfJ1aXc1Z8cdLvUcf6R35Wzr5qa9n346vL2953XvmNPY9vVqH5o0MuLUcu/ky59q6/2OmomSWrvj7hfTnt0iea79/96M+bVVFiSd94vfG6V3/mB9373XDPS6339Ob7ftTa/7Df03Df0/9cLr7p2+VDC+8of7DvheW33rGwiWLveP/S5vEvu+3PdvoeUJrjV31MA2D0CBwANFat+07rpGGUxWUldaRYeee21nb9xEiPpdd/Y4J7Hn+1e/s+R143Yb9xYl/vY8L+/j97991vSVXnC/hdjCCdG2xocmgQGkSCSBqUIDRBJDQ5Ss4ZJKcm55yzoIIKImDGgIAKppm5OjrOjGlG517vtW7/qtl9aq+1T9jpnFNnP388H7Rr1To7rqr13Ss89MvssUSdablWnfHbnvxt2WlOz6/aes8rykU30/qqogM+/8PHZ+emZm90WHHSZS+P2sGPDvspl79SdubTOlLb7Xtty3VPQgQT1bKb73pxGQitv90ZWT1X3/fT5eddfNsPs+NX3fNOVn8/X9MQn6kIMtLzU1sturz8u+n5LBPtV9qmATB4BBwAlO5+5tdZp2GQxa/zaSdz890uLh598a9Z2XaNV8ARYjRE+m+tRCDwwAt/yuoMp1/19az8aD553PDrjkT48anjH87OGUlM+7nzmd9ldaUBx1pbn1ws3PnC7Pxw7QM/X35epwFH6MVrGuI9nL7+Qdl5w4lFb29+/FdZPRRl+5W2aQAMHgEHAKVHvjR8R2wQxRSHVqMLFuxwdsuOcDvGM+BoiJEHW+5xebHtvtcWa211UnY87HzwrVmdMWpgpfUWN5Wbvv7Bxd7H3F9OtQl7Hn1vy456hERpfeHTF34pKxtiVERM7/no3leXjzc9HlNhqiNhQhpwjGTJg79Yfl43AUdDp69piKk3rbYWjno+tvjmctRKq1181vvo6dlrQFG2X2mbBsDgEXAAUHryq3/LOg2DLtabSDuYDTEVItaOuP8Lf8zOG814BxyHnfVs0zaoMYLiwpu/X64bkZatjnIIaYAwe8PDyvUr0r8dIwti/Yxq2XW3OS2bqnLnZ/+9DEiq5WJExDX3/6ypXKzN0WodlAhHRnp8DRHKxFohEcCcveTb5X/v/dzvl5/XbcDRzWsa63fEa5M+3giEqq9XrHkSfyet7+jzns8e56CL9itt0wAYPAIOAErPvDbymgmD6oSLX8o6mFUrrrN/sdWeV5Qd6LGGHeMZcBxy+jNZuYbokKfl9z72/qYy6VoTMXIjrafhmPNfyOq767P/3lTmwFMebzr+/rUPaLlganjylf9bBknV8gu2O7OpTKuAI6aG3P70v2X1VXUTcHT7mp615JtZmVOveDWrq2H3I+5qKhuBULw2abnB9vesTQNg8Ag4ACgJOIYXHd+1P3JK1ilNxa/wexx5d3Hrk/+a1VE1ngFHTLVJy1Vt8vELmsrHtJzqjh3p846dPtI6Gm598jfliIOqu58dWmgzRiek0352OeS2rJ6q82/8bvacqju1tAo4bnzkX7J6Ut0EHN2+prFDTPV47L4SO6mk9TTE6Jj0McQUl7TcYBNwACDgAOA9pqiMLKYVxCiNdT/aPLWglRiVEFucxhSDtJ4wngFHWiZ1zHnPZ+fELiSN4zvsd13TsZkLDmkZBIzFLY//OvtbMQ0oLVcVO5Fss/dVTaqPr1XAkdbRSjcBR1omNdJrGuFIjPqpHjvi7OeyOlLp9J/4LKZlBpkpKgAEAQcAJYuMjk2MQrj8zh+XIxnSTmcqdvOojjZomEwBR6spFfH8RjoePrLXVWUnO9bjSNfZGM6517+e1XPdw/+UlWvHZAw4Wr1mjdf0qnvezY4dcvrT5Xs8krW3bh5Jc+ApT2R/d5BZZBSAIOAAoGSb2PY98fLfiktue6v4xOF3ZjuNNMR0hHS9hMkUcMTinuk5ad37fPqBrExVbOG666G3F+fd8N3i8a8Mv8PHSZe9nJ2brtHRrskYcIz0mraactOJvY6+L/u7g8w2sQAEAQcApRvufzvrNDB2933+jy07wyFdQHIyBRyxXkh6Trq9a6wfceKlL7fcISQVo1pip5MIf9K/1WoR0tgtJS3XjjTgiK1b0zKt9DPgGOk1jc9CeqwTux16R/Z3B1m0X2mbBsDgEXAAULr4hpezTgPti61j085oLDpZLTOZAo7rH/7n7Jxzr/9OVi7E+hERdKSLZLayxe6XZotxHv+ZL2flIhhK/047JmPAMdJr2quAI0bMpH93kEX7lbZpAAweAQcApZPPfzjrNAyq2IXj7CXfbtJqLY3hpLtohGpnfzIFHJfe8XZ2zsW3vZmVS8XrEeUOOu2pcuvWtI6QjjI44+qvZ2ViDY+07nZMxoBjpNe01RSVy+76UfHIl//alpGmAg2iaL/SNg2AwSPgAKC0+Ogrsk7DoDr+4hezTuiVLTq/w2nVKb79qd8uP77jfjc0HZvIgOP0q/LQ4cZH/1dWbiQxhSU66atvcUJW152VNTYiQEiPVxc07cRkDDhGek2XPPCL7Fg6hYn2RfuVtmkADB4BBwClnT5xVNZpGFStdsE44pzPZeWG84nD7sjOj+1OG8djZEP1WAQDaR1VrXbe6FXAsceRdzeVf/+6By5fPyMWy4ydUhpiJEt6flWEFenfr44GiZEH7W6RGgFJjIipqi5MOhkDjpFe09huePaGhzUd32pP4WK3ov1K2zQABo+AA4DSgo23zToNgyo64mkndJWFRxf3f2H09SJiKsrcTY5sOnfmgkOKJ786tJPK/ic+mnWaR6r74wfdkpUfa8Bx2Z3DLx57//N/KgOBavmP7n318uMnXPKVpmPT1z+oePwr/yerpyHW00j/frqex3b7Xtt0fM0tTxxxusWJF7/UVD7CgsdeGio/EQFHN69piF130jo/c8sbWV2peC2vvu+n2b9TlO1X2qYBMHgEHAAs9+RX850vBtUBJz+edUJjKkmsz5GWbXjw+T8X2yYd+LD7EXc1lTvz2m9mZaKjHlM90jovuf2trGwYa8Ax/8PHt1znIkKC7fZdkpWPx9YoE881PT7SiItWzyum11TLfObWPFhYdNQ92Va64YaH/7nclaVa9h/3v6GpzEQEHN28puHmx3+VlZm90WHFFXe1nq7z9Ct/L064+KXi/WsfUIZlw5UbVNFupW0ZAINJwAHAclff+XrWeRhU0VndaMdzso5o2GrR5eWUlei4xq/qMX1jz6PvzTrjIUY93Prkb5rqvvdzfyhHIqRl45f+2IUlFqKMkQutwpKGsQYcjcew9zH3l2tDxHnHXPBCsf52Z2Tl1vvo6eUUimqdrTrsEdhc+8DPy9EqMaLjjmf+raxz+voHN5XbYPszy855tb4IcdJRHGHhzheWa1HENJcYzRDBxUrrLW4qEx382KGkWt9EBByhm9c0HHhKHqCFjy2+uZwKFNOS4jFGvennMF7n+AyldQ6qaLfStgyAwSTgAGC5o0+z9WTVvZ/7fbGwxY4oYxUd8rOv/VZWb/jkcQ9l5dvRTsAxFhG4tFpINaadrLXVSVn50UR9w02niPVI1t76lOyc0USYkNY1UQHHWAz3moYIPVqFR2NxzHnPZ/UNsmi30rYMgMEk4ABguR12OTTrPAy6R1/8a7H4lCez0QSjiVAgtgtN61te70v/U2y2y0XZeanosJ93Q7616FgCjljs9NgLv5idm4rnNtIConc+87viw5+4JDtvOLFeyUjPPUTIEaM20nNbmfPBI7JpHg3jHXD06jUNsS7LASc9li28OpyYnnLala9l9Qy6aLfStgyAwSTgAGC5leetm3UeWCZ27jjq3M8XC3Y4O+t4NsSIjQgCYqpFBBhpHamYBnPI6c+U6y+kdcUUiF0Oua3cRSSmeaTHxxJwRDAT/x6jCDbf9eKsjni8O+x3Xcv1JFJPvfL/ijOu/nq540daT0MsGHrYWc8WD77wX9n5rUSd8VoNF3TM2+yYYr8TH2nagSY13gFHL1/Thlse/3W588oqmxyV1RciMIqFae9+dvjXYZBFu5W2ZQAMJgEHAE2uuK31lAqGxNoTSx74RXHJbW8VF9z0/eKyu35ULog50m4gI4npCrG2RCzAGaLu2MklLdet6CBHx/zCm39QTh954IU/ZWXGIs6L5xvPP+qKOrvtfMd0oFjXI9bfiNczAoJWa1dMNr16TUMstBrPO9YhaXyubn3iX7N1TBgS7VXahgEwuAQcADTZ//BLsk4EwGQU7VXahgEwuAQcADRZb6OPZJ0IgMko2qu0DQNgcAk4AMjYLhaY7GwPC0BKwAFAZp/F52adCYDJJNqptO0CYLAJOADILNtNxcKGwGT1d7unAJARcADQ0snnP9yiUwEw8aJ9StssABBwANDSJpvvnHUqACaDaJ/SNgsABBwADOvCJS9mHQuAiRTtUtpWAUAQcAAwrK222yfrXABMpGiX0rYKAIKAA4ARGcUBTBZGbwAwEgEHACPabKvdsk4GwESI9ihtowCgQcABwKjsqAJMNDunADAaAQcAo5q/5sbFYy/+JetwAIyHaH+iHUrbJgCoEnAAMCb7LD4363QAjIdof9I2CQBSAg4AxuziG17OOh4A/RTtTtoWAUArAg4Axmy9jT5SPPnVv2UdEIB+iPYm2p20LQKAVgQcALRl931PzTohAP0Q7U3aBgHAcAQcALTtxHPuzzoiAL0U7Uza9gDASAQcAHTkitu+lXVIAHoh2pe0zQGA0Qg4AOjImutsVtz9zK+zjglAN6JdifYlbXMAYDQCDgA6ttlWu1l0FOiZaE+iXUnbGgAYCwEHAF3Z9mMHZZ0UgE5Ee5K2MQAwVgIOALq20yeOyjoqAO2IdiRtWwCgHQIOAHpCyAF0SrgBQC8IOADomRhebk0OYKyivTAtBYBeEXAA0FOxQKDdVYDRRDthQVEAeknAAUDPxRaPV9z2raxDAxCifbAVLAC9JuAAoG9OPOf+rGMDDLZoF9K2AgB6QcABQF/tvu+p1uUAynYg2oO0jQCAXhFwANB36230keLiG17OOjzAYIjvf7QDadsAAL0k4ABg3Oyz+NzisRf/knV+gKkpvu/xvU/bAgDoBwEHAONq/pobFyef/3DWEQKmlviex/c9bQMAoF8EHABMiNge8sIlL2adIqDe4ntt+1cAJoKAA4AJtdV2+wg6YAqI73F8n9PvOACMFwEHAJPCJpvv/N7Ulb9nHSdgsvp7+b2N72/6nQaA8SbgAGBSWXneuuWihFff+XqLzhQwGcT3M76n8X1Nv8MAMFEEHABMWrGt5P6HX1Jccdu3sg4WML7iexjfR9u9AjBZCTgAqIX4pXiHXQ4tjj7t9vLX4ye/+resAwb0Rny/4nsW37f43hmpAUAdCDgAqK0FG29b7PSJo4rFR19RrgNw8Q0vFzfc/3Zx9zO/Lh750p/eC0Gs6QFD/l5+L+L7Ed+T+L7E9ya+P/E9iu9TfK/S7xoA1IGAAwAAAKg9AQcAAABQewIOAAAAoPYEHAAAAEDtCTgAAACA2hNwAAAAALUn4AAAAABqT8ABAAAA1J6AAwAAAKg9AQcAAABQewIOAAAAoPYEHAAAAEDtCTgAAACA2hNwAAAAALUn4AAAAABqT8ABAAAA1J6AAwAAAKg9AQcAAABQewIOAAAAoPYEHAAAAEDtCTgAAACA2hNwAAAAALUn4AAAAABqT8ABAAAA1J6AAwAAAKg9AQcAAABQewIOAAAAoPYEHAAAAEDtCTgAAACA2hNwAAAAALUn4AAAAABqT8ABAAAA1J6AAwAAAKg9AQcAAABQewIOAAAAoPYEHAAAAEDtCTgAAACA2hNwAAAAALUn4AAAAABqT8ABAAAA1J6AAwAAAKg9AQcAAABQewIOAAAAoPYEHAAAAEDtCTgAAACA2hNwAAAAALUn4AAAAABqT8ABAAAA1J6AAwAAAKg9AQcAAABQewIOAAAAoPYEHAAAAEDtCTgAAACA2hNwAAAAALUn4AAAAABqT8ABAAAA1J6AAwAAAKg9AQcAAABQewIOAAAAoPYEHAAAAEDtCTgAAACA2hNwAAAAALUn4AAAAABqT8ABAAAA1J6AAwAAAKg9AQcAS80srfh+gHpptF95uwbAoBFwAAyEWWVHYKWV5hTTps0tps1YpZgxa14xa/Zqxaw584vZc1d/zxrFnJUB6iHarEb7FW1ZtGnRtkUbF21dtHnLQpBZLdpFAKYaAQfAlDSrWHHFWcW06XOLGTPnFTPnrCa8AAZStH3RBkZbGG1itI0CD4CpScABMGUsu2GfPuMDxazZq2Y3+QAsE21ktJXVthOA+hNwANTaspEa02esUv5Cmd7EAzCyaDujDTWyA6D+BBwAtbT0Jnza7HKueXqzDkBnok2NtlXQAVBPAg6AWplVrDRtbjFzlikoAP0SbWy0tYIOgHoRcADUQtxkzxFsAIyjaHOj7RV0ANSDgANgUovtXU1FAZhI0QZHWyzoAJjcBBwAk9SK759ZLnw3Z+XVs5ttAMbb6ssWI13aNqftNQCTg4ADYNKZVay49L+zZtsVBWCyibY52mijOQAmHwEHwCSy4vtnFStNX7mYPTe/qQZgcog2OtrqaLPTdhyAiSPgAJgUZhUrrDizmDHTWhsAdRFtdrTdRnMATA4CDoAJFwuJzipmzbZDCkDdRNu9bCSHkANgogk4ACbQspviOcXsuRYSBairaMOjLTdlBWBiCTgAJki53sa0udbbAJgCynU5lrbpQg6AiSPgAJgAcQM8bemNcHqDDEC9Rdsu5ACYGAIOgHEm3ACY2oQcABNDwAEwjhrTUtKbYQCmFtNVAMafgANgnAwtKJrfCAMwtURbb+FRgPEl4AAYB3GDG2bPnZ/dBAMwNUWb32j/0+sCAL0n4ADou1nFCivOLGbNXjW7+QVgaou2P64BcS3Irw8A9JKAA6Cvlv1yN2PmvOymF4DBENeAZaM4hBwA/STgAOijclHR6StnN7sADJa4FpiqAtBfAg6APinnXS/9r0VFAYhrQVwThBwA/SPgAOiDZYvKWXcDgCFxTYhrg5ADoD8EHAA9t2zdjekzVslubgEYbHFtsB4HQH8IOAB6bNnojdlLb2RXz25sARh0q5fXCKM4AHpPwAHQU+/tmjLLrikAtBbXCKM4AHpPwAHQQ8tuWOdkN7MAUBXXCqM4AHpLwAHQI8umpswqZs6ysCgAI4trReO6kV5PAOiMgAOgR+ImdaVpc7ObWABoJa4ZAg6A3hFwAPSA0RsAtMsoDoDeEnAA9EB5czotdk7Jb2ABYDhx7RBwAPSGgAOgS41f3+ycAkC7GjuqCDkAuifgAOhS3JSusOKs7KYVAMYiriECDoDuCTgAurLspnT6jJWzG1YAGIu4hiwLOIQcAN0QcAB0YfniorNXy25YAWAs4hpimgpA9wQcAB1bdjO64kqmpwDQnbiWGMUB0B0BB0CHGr+2TZ+xSnajCgDtiGuJURwA3RFwAHSocSM6a/aq2Y0qALQjriUCDoDuCDgAOrLsJnSFFWdmN6n0zuEn3lAcfsL1y6XH6c4qq65bfHyPY5tstuVuWbl29atemOrimmKaCkDnBBwAHVkWcKw0bU52g0rvPPNa0SQ9TnfWWf/D2Wt8+sVPZuXa1a96B8X8NT9YLPjgR4s11t4kO8bUFtcUAQdA5wQcAB1Yvv7GzA9kN6j0TtpJTo9PJbvve0pxy6M/W/5cl9zzg+Ij2++bleulfgUR3da70aY7lM9/JGn94YEv/GdWruqyW76e/a3JIEa3fPqMu4qbHvxJ8eiLf2l6To986c/Fdff+sDj61NuK9TbcOjuXqSWuKaapAHROwAHQgWU3oDNtD9tnaQc2PT6VXHPnd7Pne9Zln83K9VK3QcRwuq13s60+kZ3fCw9/8c/Z35pI8TqdecnTxVOv/L/ssbbyxMv/uzjhnPvKKUBpXUwNy7aLbUxTya89AIxMwAHQtsb6GzOK2XPzG1R6J+3gpcenihix8HSLTm50yOfNXz8r3yvdBhHD6bbeQQg4Ntn848Xdz/w6e4xjESM61lx7YVbnZLTHfqcXl974SpP1N/pIVo5l4poS1xbTVAA6I+AAaNt7w4ffPzu7OaW30o5denyqOPb0O7Pn2rDPQedm5Xul2yBiON3WO9UDjgi0Hvj8f2SPLzz24n+XU5Wuv+/N4s6n/qV48uX/k5UJMeJn7iprZXVPNjG1Jn3sC7fYOSvHkLi2CDgAOiPgAGhTY370StPmZjem9FbaMUqPTxV3Pf2r7Lk2XHXHd7LyvdJtEDGcbutd+QNrletNjOTcKz+f/Y0YLZCWq1p3gy2zvzURrrnre9ljj8Ajwqx0xE68lkeedFM5PSU959Djrs3qnmwEHO2La4t1OAA6I+AAaFPjxnPa9JWzG1N6K+0Ypcengh12OTR7nlUxdWXDhdtn5/VCt0HEcPpVb9XJ5z+U/Y14LdNyk83+h1+SPe4IuEZbQHTHXQ/P1up46PnfF6vNX5CVnUwEHO2La4uAA6AzAg6ANjUWGJ0xc152Y0pvpR2j9PhUkI5EuP7+t4r7P/fvTf927Om3Z+f1Qr+CiH7VW1XXgOO2x3/R9JgjwNpmx/2ycq3EorPpc/7kQedl5SYTAUf74tpioVGAzgg4ANo0tIPKqtmNKb2VdozS43W36uobFo9++b+anuMhn76mDAOq/3bnU/8rO3cs9tz/jOLSm18r7n32t8XjL/1POQ3i2nt+UCw++spi3mrrdxxE9KvedvQq4IgREJ88+PzikhtfKV/n2JY11sGIURWX3/KN4sAjL+3Zgp477npY9pgvuenVrNxwIghJz79oyYtZuVT83dit5ZZH3i0efOEP5XSXB5//z+LWx35ehiY7L/p0dk5VvAbnX/PCcseecUf57zHl5+QLHi5fq8bnYIedDymOP+ue5WXTxxtiy97G8dgVJv17gy6uLQIOgM4IOADasmzYcNx8zrJFbN+lHaP0eN196tALm55fTEFYd8Otim0/dmD23Ldvo/Mei1hGJzKto+q2x39ZbP/xg7N/HymI6Fe9nehFwLFov9PLkCatJxVTQQ444tLs/HYdf/a9Wd17HXBWVm44sajoYy/+ten8WIg0Ldew+Uf2KEcEpX+zlVgXZLiRFWlQEaNQYiHYe5/LX7td9zq+XCQ1/ffhxOcl/XuDLq4tQwGHkAOgHQIOgLY0Ao7YInZ+dmNKb6WdofR43aWLTV595+vLj6VbiMZUlvT8VmILzpEWLa169MW/ZP82XBDRr3o71W3AceTJNxdPv/r3rI6RnHbR41k97Ujf7xCjXdJyI/nUYRcVh59w/XIHH3tVVibEmh2t3oeRRNiz4IMfzepKA44HvvCfxR1P/FN2fojRIAKO7sS1Ja4xAg6A9gk4ANqyLOBYYcUIOFbPbkzprbQzlB6vsw9uukO5/kL1+VVHCZx47gNNx2IqS0xpSetJxbSK9HULMTUhfs2/+eF3h916NAwXRPSr3k51E3DElJT03BDbyMYIlQgiYgpHejzEmhJpfWOVbg0bQUFaphdiFFC8L+ljj1AiQprjzrq7DC1iOk5a5tq7v5/VlwYcI/nYHkcX5171hXKb25AeD/d+7t+WH4+607836OLaEtcYAQdA+wQcAG1orGy/wgoRcOQ3pgzv8BNvyDo6/RZ/M30ck8Wnz7ir6bFGOLDWupstP77lR/fKnk9MaUnrqfr4Hsdm50S9sTbGyvPWWV5urfU+1HLBytAqiOhXvd3oNOCIkShpxz6mBh1z2u1NW7TG8zromCuz7Vmf+urfii233TurdyzSumKkQ1qmF04678HstYm1LmKKS7Xcgo23LdcdSctutf0nm8oNF3DE63bZLV8rjj7l1vK1OuqUW4pNNv9407kWGW1fXFviGmMnFYD2CTgA2tC44Xzf0pvP9KaUkQk4mqXTPS675etZmdsf/2VTmRhZkJapioUy09dg8dGXZ+UaLrruxax8qyCiX/V2o9OA48Rz7s/Oi+kqabmGVqM9xrKwZyoWM03riZEvableSKeIxGctDTcaYh2S9HGl35tWAUesvzGWoEfA0Zm4xgg4ANon4ABog4CjcwKOIbE+QvpYW233eezpdzaViSktm3xop6xciN1L0hECMSVhuI5t+OCmO2aPIw0i+lVvtzoNOGJaSPWc6PxXR6G0kk61iFEca6yzaVZuJK12lonpMGm5XohdbmK0T8NOux+VlWlYZ/0tsseVrjXSKuAY66K3Ao7OCDgAOiPgAGhDNeAwRaU9Ao4h5131fNPjjJ0x5q/5waxcdATT5xTrJ6Tlwjb/eEBWNrbrTMtVtep0p0FEv+rtVicBxxbb7JmdM9pzCQcedVl23u6fPDkrN5JWr0m/Ao52rLLqutnjOuvyZ5vKtAo40nqGI+BoX1xbBBwAnRFwALRh+RocFhkdF2nHKD1eRxFkPPbifzc9r89c/5WsXMNND/6kqWzsrpKWCfsd9pns9dptn5OyclWtOt1pENGvervVScDR6rnE+iJpudTmW++enRdrWqTlRrLG2ptkdVx37w+zcv0Qo20i3Nn3kAvKdTJims6pFzxanHLho+X7kj6usy9/rul8Acf4qi4yKuAAaI+AA6ANzQGHbWL7Le0YpcfrKLb5TJ/XHvudnpVrOPKkm7LyO+12ZFYutgxNy0WnNi1XNZYgol/1dquTgCPW2kjP2fhDH8vKpWIKS3peGgKMxVOv/N+mOm555N2sTC/FbiqnXvRYtnvLaNLnJuAYX3FtEXAAdEbAAdCGoYBjZjFr9mrZjSm9lXaM0uN1FNtwps9r7wPPLkOOVmJ3irT8Bdd+Mas33ZUlDLdeR8NYgoh+1dutTgKOdOvdEGtQpOVaSdchufiGl7Myo3nohT821XHPZ3+TlemVGGUTWwunz3csRgs4Yged9O8NR8DRvri2xDVGwAHQPgEHQBuqAcfM2atmN6b0VtoxSo/XTSy+GQuFps+rXeWaHWs1r9kRW3Wm5WKr2fQxVI0liOhXvd3qJOBoFdbEVqlpuVbS9y06/WmZ0cSIjWodUWd1a9qxiPKrrr7hcrE7S1pm250WZ6NFwo0PvF2uORILj8buKRGg7XXAWVk5AcfEimuLgAOgMwIOgLYMBRwzZn4guzGlt9KOUXq8bmKB0PQ5deqAIy5tqnvx0flIj50XfTp7DFVjCSL6VW+3Ogk4Dj726uycrbffNyuXWneDLbPzYv2KtNxozrz0maye2FEnLTeSB1/4Q9P5937u37IyNz/0TlOZCCQi0EjLhVaLjAo4JlZcWxoBR1xz8usQAMMRcAC0ZVnAseL7ZxbTpq+c3ZjSW2nHKD1eN7FAaPqcOpUuULnLXsdlZQ48sjkESY0liOhXvd3qJOCIBUXTc/Y7/OKsXCoCnfS8xUddkZUbTWwFnNbTTlASU4PS86++8/WmMptusUtWJl6rtK4GAcfkE9eWuMYIOADaJ+AAaMtQwLHStDnZjSm9lXaM0uN18o+7HZE9nxA7WoxFet7Tr/697Mw26o9QIf6tWmak3Vka56T1pkFEv+rtVicBR+xg89RX/9Z0zmW3fC0rlzrzkqezv7XZlrtl5UYTU0oe+dKfm+qJ/7/WuptlZVs59ow7sscRU4iqZfb41KlZmV33PiGrq0HAMfnEtUXAAdAZAQdAmxoBR/w3vTGlt9KOUXq8Ts67+vns+ey462FZueG02uI0go9qmXRL2eiIjrQg6CGfviars1UQ0a96u9FJwBEuu+XrTefEOhhbbf/JrFzDhgu3Lx5/6X+azrn1sZ9n5cYqdjVJH/dF172YlUtttOkO2SKlTy197PHv1XKxYG1a/ycPPj+rr2GXPfMROr0MOGJb2rT+zbb6RFaOIdVrTHr9AWBkAg6ANjVuPt+3QmwVm9+c0jtpxyg9XhcxcuDRF//S9Fxi7YS5q6yVlR3OmmsvzHbyuPe53zbVcfCxV2WvWYQTrXYKiTAgXTgztAoi+lVvNzoNOGLNi/S8u57+VbkAbFo2nl8a7oQIm9KyYxXreTz4/H9mdV5wzZfK9zgtHz6y/b7FnU/9S3bOuVd+Piu7zY77Z+VuuP/tcqvbtOwOOx+SjSgp673ic03lugk4Djzqsqz+CGHSciwT15S4tgg4ADoj4ABok51Uxk/aMUqP10Ws85A+l/glPy03mktuejWrp7rgZ+ywEZ31tMwDn/+P4qTzHiwfx2HHX1dccuMr5a//abnQKojoV73d6DTgCLHNbnpudPTjPdn7oHPKnUVOOOe+4oEv5EHEknt+0FYw1cru+56STfsJsTtOTP+Jvx07vpx5yVNlwNKq7H3P/a6cCpTWvfIH1iq3n03Lx8Kji4++vNh1nxOL/Q+/pLj4hq8O+16lI0q6CTharV8SC6XG6KMIzmLaTXrOILODCkB3BBwAbaoGHNPtpNJXaccoPV4X0SlOn0v80p6WG83ei8/J6kk7ozvtflS2zkQ7hgsi+lVvp7oJOGKkRLpl61jc89l/zaaEdCpCoeEChtFEQLDltntndTbENrDpOe24/r43m+rrJuCYt9r6LUeJdFLXIIhrioADoHMCDoC2DQUcFhrtr7QzlB6vg1irIp2yEaMh0nJjEYtUplNdHv/K/xRrrLNpU7mYApBOZ0nFqIAjT74521J0pCCiX/V2opuAI0TIceXt38rqGE6MpFjwwY9m9XRj172ObznaYiQRPoy0/knDsaffmX3uWjnjkqeKGx78UdO/xWesOqWlm4AjtJri1BChWVp+kMU1xRaxAJ0TcAC0bWgnlZgrnd6g0juHn3hDk/R4HRx/1j1Zpy5dHLQdFy15Matv8dFXZuU233r34srbvtlylMDND79bfHzRMWW5dNHN0YKIftXbrm4DjobYdWTJvW+0fD4R1sRzOuCIS7ueljKc1eYvKI486aZhp6KECJWuuuM7xR77nZadP5IYdROBSKt6Y6HURn0nnvtAdry680q3AUeIz2i6SGqndU1lzetvCDgA2iXgAOhAI+CwDgeT3Xobbl3ulBHTFmLth15t0dmveidKrGcRW/nGGhyx60gENQs23jYr108bfHCbchHUmIoUC5nuuf8ZxTY77leGIGnZdsROMI33atF+pzdtLzyeYlTI9rscWnzyoPOWvcZ7HFustd6HsnKDamj9DQuMAnRKwAHQgeo6HNOmr5zdqAJAO+JaYv0NgO4IOAA6MhRwrPD+mdmNKgC0I64l1t8A6I6AA6AjQ+twrLDiDNNUAOjYsukp1t8A6JaAA6BDzdNU5mY3rAAwFnENMT0FoHsCDoAOVQMOu6kA0Km4hgg4ALon4ADoWHWaysxixswPZDetADCSuHY0754i4ADolIADoAvVURwrLr0pTW9cAWAkce0wegOgNwQcAF1pXmx0xqx52c0rALQS1wyLiwL0joADoEvVURzx/9MbWABoJa4ZRm8A9I6AA6BLjRtTozgAGKt09IaAA6B7Ag6AHqguNhr/O72RBYCq5es3LZ+ekl9bAGiPgAOgB6rTVMpRHHZUAWAYy3ZOsTUsQK8JOAB6pBpyrLjUnJVXz25qARh0q5fXCOEGQO8JOAB6JF2LY9r0uS1ubAEYZHFtsPYGQH8IOAB6qGmqygrTi5mzVs1ubgEYTHFNiGuD0RsA/SHgAOip6iiOmcX7lpo9N7/JBWCwxLUgrgnNC4sKOAB6ScAB0GNNozhWnFG8f9qc7EYXgMES1wILiwL0l4ADoOcaozgaU1VmFNNnrJLd7AIwGOIaENeC5nBDwAHQawIOgD5o3MA2pqr8w/umFzNnW48DYNBE2x/XgOrUFKM3APpDwAHQJ80hx4zifSvMKGbPnZ/d/AIwNUWbH22/XVMAxoeAA6CP0vU44n9bdBRg6ou2fln7n05Nya8VAPSGgAOgr5L1OCLkWPpv6Y0wAFNLtPV5uCHgAOgnAQdA3zWvxxELzcW/pzfDAEwN0cYPLSpqS1iA8SLgABgHzetxCDkApqpo29Nww9QUgPEh4AAYJ61CjhjCbE0OgPor19yIaSnCDYAJI+AAGEctQ46l/3+W3VUAaiva8HKtJeEGwIQScACMsyzkKLeQnV7MnLVqdtMMwOQWbXe04UMLigo3ACaKgANgArQKOf7hfdOK6TNWyW6eAZicos2Otlu4ATA5CDgAJkirkON9sfjotDnW5QCYxKKNjrY62mzhBsDkIeAAmEBDIcesppDjfUv/a8oKwORTTkl5r60eCjeG2vK0nQdg/Ag4ACbc0I1x82iOacW06XOX3lCvnt1gAzDeVi/b5GibW4/aEG4ATDQBB8CkMFzIsewXwhkzP9DiZhuA8RBtcLVNFm4ATE4CDoBJpDrMOQ064t9mzJyX3XgD0B/R5kbbO1ywYUoKwOQi4ACYdFqHHCvE2hwrTC9WXFpG0AHQP2WwsbStLbd/HSbcMGoDYPIRcABMUsON5mgEHSss/bfpM20rC9Ar0aZG2zpSsGHUBsDkJeAAmNSqIUfroOMf3je9XPhu5my7rgC0K9rOaEOjLR092BBuAExmAg6AWhgh6HhvjY64MY+tC6dNX7mYOcsUFoDhRBsZbeWy7V4j2GiEGoINgDoTcADUynBBR3VUx9DIjvdPm11Mm7FK+Qvl7Ln5TT7AVBdtXzlKY2lbGG1iY6RGGWpURmsINgDqT8ABUEtp0NEi7Fg+sqMReEwrj8X5K02bW841nzlr1WLW7NWKWXPnL+0ErC4EAWol2qxou6INi7Ys2rRo26KNi7Yu2rxo+xqBRjpSo1WoIdgAqC8BB0CtpSFHq7BjKPAYGuFRmdZSig7AtLIjAFAnjfZrqD0bauOGRmgMBRrDhRqCDYD6E3AATBn5zXoj7GhoDj0qwQfAlNHczlXbwLx9FGoATCUCDoApKb+Jz6U3/gBTRdreCTUABoGAA2AgLLuhT2/yAaa6RvuXt4sATDUCDgCKoQ4AQF2l7RoAg0bAAQAAANSegAMAAACoPQEHAAAAUHsCDgAAAKD2BBwAAABA7Qk4AAAAgNoTcAAAAAC1J+AAAAAAak/AAQAAANSegAMAAACoPQEHAAAAUHsCDgAAAKD2BBwAAABA7Qk4AAAAgNoTcAAAAAC1J+AAAAAAak/AAQAAANSegAMAAACoPQEHAAAAUHsCDgAAAKD2BBwAAABA7Qk4AAAAgNoTcAAAAAC1J+AAAAAAak/AAQAAANSegAMAAACoPQEHAAAAUHsCDgAAAKD2BBwAAABA7Qk4AAAAgNoTcAAAAAC1J+AAAAAAak/AAQAAANSegAMAAACoPQEHAAAAUHsCDgAAAKD2BBwAAABA7Qk4AAAAgNoTcAAAAAC1J+AAAAAAak/AAQAAANSegAMAAACoPQEHAAAAUHsCDgAAAKD2BBwAAABA7Qk4AAAAgNoTcAAAAAC1J+AAAAAAak/AAQAAANSegAMAAACoPQEHAAAAUHsCDgAAAKD2BBwAAABA7Qk4AAAAgNoTcAAAAAC1J+AAAAAAak/AAQAAANSegAMAAACoPQEHAAAAUHsCDgAAAKD2BBwAAABA7Qk4AAbE7DmrF/Pmb1Csuc6mxXoLti42XLhdscmHdio222LXYvOtdy+22GbRUnsC1NCish2L9izatWjfop2L9i7avWj/0jYRgKlHwAEwBU2bsUoxb7X1i7XX/3Cx8aY7ljf/eYcAYJAsKtvDaBejfYx2Mm07Aag3AQfAFDFrzvxijbU3LTZaGIFGemMPQCray2g3o/1M21QA6kfAAVBj8Qvk6mtu/N4ojfzmHYCxiXY02lMjOwDqS8ABUENzVl6znF+e3qAD0L1oX6OdTdteACY3AQdAjaw8b51iw423y27GAei9aG+j3U3bYgAmJwEHQA3MXWUtwQbABIn2N9rhtG0GYHIRcABMYjNmzjMVBWCSiPY42uW0rQZgchBwAExSsdjd5lvvnt1gAzBxol2O9jltswGYeAIOgEkmtivccKHpKACTWbTTtpcFmFwEHACTyPw1Nlp647wou5EGYDJaVLbbaVsOwMQQcABMEust2LLFzTMAk12032mbDsD4E3AATLCZs1ctNlq4Y3bDDEB9RDse7XnaxgMwfgQcABMoth3cbItdsxtlAOon2nPbyQJMHAEHwAT5wKrrFdbbAJhqFpXte9rmA9B/Ag6ACTBv/gYtbooBmCqinU/bfgD6S8ABMM6EGwCDQcgBML4EHADjaNm0lPwmGICpyXQVgPEj4AAYJ7HwnDU3AAbNIguPAowTAQfAOIitA+2WAjCYov23hSxA/wk4AMbBRgt3zG54ARgccR1Irw0A9JaAA6DP1luwZXajC8DgietBeo0AoHcEHAB9NH+NjbIbXAAGV1wX0msFAL0h4ADok1lz5hcWFQWg2aLy+pBeMwDonoADoE82XLhdixtbAAZdXB/SawYA3RNwAPTB6mtunN3QAkBDXCfSawcA3RFwAPTYjJnzis233j27mQWAhrhOxPUivYYA0DkBB0CPrbdg6+xGFgBScb1IryEAdE7AAdBDc1dZK7uBBYDhxHUjvZYA0BkBB0APbbixhUUBGLu4bqTXEgA6I+AA6JGV562T3bgCwGji+pFeUwBon4ADoEeM3gCgE0ZxAPSGgAOgB+asvGZ2wwoAYxXXkfTaAkB7BBwAPWDnFAC6YUcVgO4JOAC6NG3GKtmNKgC0K64n6TUGgLETcAB0afU1N85uUgGgXXE9Sa8xAIydgAOgSxtvumN2kwoA7YrrSXqNAWDsBBwAXZg1Z352gwoAnYrrSnqtAWBsBBwAXVhj7U2zm1MA6FRcV9JrDQBjI+AA6MJGC01PAaB34rqSXmsAGBsBB0CH7J4C7Tv8mPOL086+bshZS7IyMOjspgLQGQEHQIfmrbZ+dlPKyHb8+OJir08dX2y30/7ZMXpj3wNPLq5Y8mBx+bUPlq91enyiPf3ct4uf/fP/Xu6dX/wlKwODLq4v6TUHgNEJOAA6tPb6H85uSmkWHezrbnmy+PJXf1y89c4fl3dqf/pP/1P88Me/L77w5R8WVy55qNh1zyOzc2nfYUefV7xdeZ3f/MnviwMPPTMrN5EEHDC6uL6k1xwARifgAOiQ7WGHFyM1brnj2eJHP/1TU2d2OG/8+D+Lq657uNh6u32yuhi7Bx/7avba3vvQl7NyE0nAAaOzXSxAZwQcAB3aYptF2U0pe5ajMV589Z2soz0Wn33+e8X2Hzswq5OxeeDRr2Sv6d0PfDErN5EEHDAWi7JrDgCjE3AAdGD2nNVb3JDysd0OKV771j9lnewQ01LeePs/im9+71fl9JT0eMMLL71pJEeHDjr8rKbX9gdv/Xux30GnZuUmkoADxiauM+m1B4CRCTgAOjBv/gbZzSh7Fo88+VoWWLy7tAN7z4NfLvY/+PSmsrFexGNPfa0MPtJzbr7js1ndjM3uex9TXHjpHcUFl9xRfGLPo7LjE03AAWMT15n02gPAyAQcAB1Yc51Ns5vRQXfqWddmQcVPfv5fxclnXJ2VrbrosruykCM6vQcfcXZWlvoTcMDYxHUmvfYAMDIBB0AH1luwdXYzOuheeOntLOCIrUrTcq3ced/z2bkPPfFKVo76E3DA2MR1Jr32ADAyAQdABzZcuF12MzrIDjnynGwUxte/8y9jXktjp10PLt740X80nf+jn/652GWPw5vKXbXk4eKJZ7+13NXXP1L+e5S74danipe/9tNynY8f/+y/iu+++W/lNrQXX3lPsc0O+2Z/cyTb7bR/8Zkr7ikXPf329/+13A0mtrn99vd+XXbQz7/4thGf25KbHm96nNfc+NjyYzHS5YnPfvO9ev9cbusar1UsEHrgoWdkdbXjuJMva/q74ajjLszKhYl6jMMFHPEZuO7mJ4qXXn23XDuk8R4+/+KbxSVX3Vt8dMf9srqqrljyYNPzufWu58p/X7Tvp8udZOK5RJ1R94mnXpmdv+MuB5WflWfjPV/6PsdzfvvdPxXf+cFvln6O3ijrTz+PqUOPPjd7/Q8+4pysXEOMbmq8DjGVK85PyzScdPrVWd0xHSktt/MnDi2/F5/74g/K1698/957Hl/+6o/KbZs/ecCJ2Xkj6fb70O17M6jiOpNeewAYmYADoAObfGin7GZ0kEW4UO20hutvfjIrN5KHHs+3OD3nwlubyqSd4xg1cuJpVxbfW9qRS8+teuUbPy8OPGxsHfPTzr6u7LildaRe/dYvi6OOuyg7P0Tnslo2HmfsLvPc89/P6qmKKT2xfkZa31hdfPndWZ3nXHhLVi5M1GNM38MIOI46/jNlJzf9W1WvfvMX5SKqaX0N0XGulo9AJoK3Vp+Ns86/senc6KC//sO8XCq2Mx5pVFIEIBFUVM+J0CYtN9xjvuPez2dlGh589OWmst9/63dZmQgh3vzJ8Av4NsR7eOudz40aGoVefB/S59nOezPI4jqTXnsAGJmAA6ADm22xa3YzOsie+2LeKT7w0DOzciM5+4Kbsjri191qmbRzHJ3J+KU9Pa+V19/47ai/XF9xzQNZB3Uk8bePO+XyrJ40PPjG6/9SdtDT81t55xf/Peyoi9F0E3CM12NM38MQwUH6b61Eh/hTi0/O6gxpJ7qxY09aRzj9nOuXn3fT7c9ko49Gc/8jX8n+fkOMIqqW/ewXvpuVCTHiIR21FK9/Wq4hfW+eXPp8q8cjUEwf52jivUj/TlWvvg+dvjeDLq4z6bUHgJEJOAA6sPnWu2c3o4Ms/fU7hrCnZUYT4UPa2Ykh9dUyrTrH1b8ZncCXv/azcvh8ejzEVIP07zbEtIxWHd3ohH7p5R8VX3nt3ZZhSnS606kLaXhQFb+ex6/d5XSaYTr2MYoifXxj0U3AMV6PcaT3MEZzxDbD5d9NOv8NMdIkrTOkneiRnHbWkvKcmJKSHgtvvfOH4qVXf1J+/oZ7HLfc8Wz2GEK6nkx8PtIyIYKAtM74/O31qeOzsjF9Jl6batlLr7x3+fEYOfHuL//adDyCiQhX4nGGmHrTKqwYboRJL78Pnbw37FleZ9JrDwAjE3AAdGCLbRZlN6ODLOb5VzspMRogLTMWMQ+/Wk8MZa8eb9U5jo5d/Aq/48cXLy8X/zs6da06aKeceW32d6MD+f03f5fVG52/6jD+WN8gnSoQYhvcan3DhQf3PfJiOQ2kUS5+xY/1CdLHGZ3ZeEzp4xxNLwKOfj/GVu9hiNe1uq1trJty2dX3Z5+J0OpX/uE60fE+xnO9eenn4ZrrHy23II7pShEkpB30KBtTN6qfpXj/47wIfZrKLn3+R346H8USU6bSx7DfQadm5e6874WsXIjXOi1bXasjpEFI+tzjscZ6LGk9Eaqk39X43KdTVXr9fUgfX7XOVu9N+rgH16Ls2gPAyAQcAB3Ib0QH1/YfOzDruMQv8Gm5sUhHC6S/frfqHN942zNZPQ2xmGFaPh3aH2KBzbTcSPWmU3Liccfr0DjeKjyIX/bTehpaPa9OFlvsNuAYj8fYqp5YfyUt1xAhR1r+mc+/npVr1YmOz0+rECK0ChgiKEvLNbQa7dFqikcEAGlwEuem5b72rX/K6gvx2UrLRlhXLZMGf+n6JcNNiwl3P/DF7G8eelTz4qa9/j60+94wJL32ADAyAQdAB9Kb0EEWOyGknZd0aslYxToZ1Xqio1g93qpzXO1IpeKX+NiZoVo+ph+k5b727X9uKhO7T8TOEWm5hlbTC2JIf+N4q/Ag/ZW8qlUwceGld2blRtOqnnYCjvF4jK3ewz32yXcDqUrXa4jpSOmuHa060TGaIq2rIdaBqJaNkGCk5x9iWkb1nBjFUR3t0vD5L73RVO7hJ15tOr7vgSdnI2Ia4rmln+m0vvsefqnpePoZj91O0sfUcPQJnylHXVSlO730+vvQ7nvDkPTaA8DIBBwAHTBFZcieExxwpHWkHnnyteyc6lanEdCknc20A9lKOtQ/htk3jrUKD9Lzq2LaTFr+yiUPZeVG0yqEaCfgSMtU9eoxdvIe3vPgl7JzYheOaplWnei0nobDjzk/K3vHvV/IyqXi+abntXp9YwveapkIDKrHYxvX6vHb7/l80/8/49zmKTjpOiDpTiMvvvpO0/FYBLbV4xqLfnwf2nlvqDJFBaBdAg6ADlhkdEjMw087Ly+9+m5WbizSX6LjV/bq8U46x7GmQXpO7NjSOH72BTdnxx964pWyQz+S9LE++tTXltfZbnhw0mlXZeVjTYK03Gj6GXD06jF28h62mqYSW7tWy7TTib78mry+2A41LZeKqRzpea2m9Rx8xNlNZSIwqC68+YUv/3D5sdiCNdYeqS4A+uBjQ1N2Ymvcal0RXuy068FNf6/V6xNie+RY1+LTJ11armmSPs5W+vF9aOe9YYhFRgHaJ+AA6IBtYptFp6vaeYn1BdIyY/H2u39qqiemJlSPd9I5jgUp03MiCGgcv/zaPADpRHXdg4kKD6ZqwHHmeTdm58QWptUy7XSiY62NtGx1VM9wYgpLel6MEErLhXRnoXgO8e8xbao62iEWdY1/j1FPjX/7zg9+s7yeNIz58ld/nP2t8PTnvpM9tqoYDRXBSgR+Oye7nFT14/vQznvDENvEArRPwAHQgU0+tFN2MzrI0vUMYkh9WmY00elKh8ani5V20jk+vsX6AFcteXj58Vg8MT3eieg8NupMw4NYdDF9XFW9Cg+6CTjG6zF28h4ee8LF2Tnp9qZpJzp2eUnrabjr/nyhzdHWAWlId1MZbkHPx5/5RlO5xkiPs8+/uenfTz7zmvLfr7vlyaZ/byz8GSMhqv8eu7ykfyvEmiSxqG6rXWdSEbDE4/nYbodk9fTj+9DOe8OQuM6k1x4ARibgAOjAhgu3y25GB1n11+eG6jaWYxE7cqR1PFYZ5h466RzH8Pn0nBjS3zjejw7dRIUHUzXgSLdJDVddNxRShXY60bfd/bmsvlj4My3XShrCxd9Ny4SLLrurqVxj5MXDT766/N/e/Mnvl08d2f/g05rKN3Z0iR1Tqv8eYU/6t6piDY0IOtKFQluJkVZpsNOP70M77w1D4jqTXnsAGJmAA6AD6y3YOrsZHWSxQGPawWm1NeZI4pfptI5qEBE66RxfcMkd2TnnXjTU6Y+pDunxWN9h972PaUt12P9EhQdTNeC48NL8PfzM5Xc1lWmnE91qG9Sjjv9MVi7VasegxhSTVHwmqmFIjJqIKS7VqSvpNrPVUCIWDk1HNf3wx7/Pdo8ZyT77n1i+ThGqpFNmGqpBROjH96Gd94YhcZ1Jrz0AjEzAAdCBNdfZNLsZHWQnnZ7/wv7CS29m5UYSvyZXz4+O3X4HndpUppPOcbpDRTjquAuXHz/trOuy4zfc9nRWTzsmKjyYqgHH9Tc3T98IMeKnWqadTnQsKJrWl67p0Uqr9VzSkSRVr3zzF01l08VAY5RHtXxMG2kci0VH02BnuOkwYxHByPmX3F6GJOlzOPToZdNhQj++D+28NwyJ60x67QFgZAIOgA7Mm79BdjM66L7xevNQ+ggoTjytuRM6nPiFOO1UtQpIOukcf+W1d5vKxxoK8Ut643jsSJGuqxAd07SedkxUeDBVA47PvdD8WOOzla4f0U4nOs6t7loS4vVIy6ViN5H0sR98RPN2tVXp9rbff+t3TY+vurNKOPbES5rKp9+pVtvyxpayt9zx7HKjvSetvmvV0TD9+D60894wJK4z6bUHgJEJOAA6MHvO6tnN6KBrtfvC62/8thwmn5atit0r0i0mQ2PXiapWneMjPz00GiMV22Om5b/40ltZuc9/6Y2s3CVX3ZuVS8Wv92ednz/OiQoP6hpwxDSitFzDpxafUnaIq+Vf/trPsnLtdqLT9zxCk6OOuygr1/CpxSdnC3jG+hhpuapTz8rXf2n44lfezsqH773ZeipJiHU60vKx3ka1TAQ3sXVzWq5h/4NPz+qtLrob0tcmdPN9aPe9YZm4zqTXHgBGJuAA6NAW2yzKbkgHWSyWGOsGpB2jCDmio5eWD7GjxPffHPpVu+G557+flQ2tOsexlWx0PtOynzzgxOLb3/t1Vv7SK/OO2nEtdlqJX7HP+8ytWdkQI0BiocroFMcWuWm5iQoP6hpwxGKbEUalZWOEw0uvNo/ACdfe+HhWtt1OdKuFS7/9/X9tGSLEQpyvJtNNQmzhmpat2v5jBzZtCVuV7gLTUF2EtOmxLf0sp2VDjJJKy9738EtZuYZ47dLysRBvtUyvvw/tvjeERdk1B4DRCTgAOrTxpju2uCkdbNE5fOudP2Sdo/CN7/6q3DrzvodfLJ747DfLzmRaJsQw/nRnh4ZWneMQfzM6dfErc6wzEGsZRIc9LfetpZ3E7XbaP6s3xI4tafkQv7RHR/7sC24uA4Q773uheP0Hv2kqE7+ax0iURl0TFR7UNeAI8RrGGhOx3kashxGvc6vRDPFvMY0irbeTTvSTyTnhrXf+WH6WYtpGrIFRfpaSbZDDS6/+ZEwLfsaIofTc0CpICTECIi0bHn7i1axsQ6sQ6Lkvfr9cMyS+SzGi44hjLyi3x02n5nx36evZ2Mmlqpffh07em0EX15f0mgPA6AQcAB1ae/0PZzel7FlOGWk15WQsYrTHQYefldXZMFzneCyi0zXcSJKw4y4HtewojkWstVCta6LCgzoHHGMRIwTOubD1KIJOOtExQuS1ZHHbsYjPaUydSetr5YZbnsrOj91S0nINMerj7Xf+mJ0Ta2ekZRti2skbP8pDmNHE69lqSkno5fehk/dm0MX1Jb3mADA6AQdAh+attn52U8oy0eEa7pfr4USHO6aVpHVVpZ3j6Cg98uRrWV2pGDY/lm1rd/z44nKUSXVrzpFEvTfc+lRWz0SFB3UMOL7w5Teadg8Zzru//OuIf6/TTnSEHM+/+Gb294YTU1VG+5xWHX7M+VkdMeohLVf12ee/11Q+wrl0QdJU/J3qNrOjefvdP5UjVNJ6qnr1fej0vRlkcX1JrzkAjE7AAdChaTNWyW5KaXb2BTeVQ+WHW4cgOlnPLu3MnXbWkuzcVtLOcaOjFNMJYi2OtP7omL3w0tsjLkTaSqwHETt3/Oinf8rqbDzu6PgNt4PGRIUHdQw4IqCKf4+RGbFoZ/o34j2MtV2OO/myrK6qbjvR5150S/l3Ikhp9Rhe/dYvy4V0xzItJVXdPSW0Wm+kKqZaVcu//LWfZmVaielX193yZLY9bVW8zw88+pW2Qppuvw/dvjeDKK4v6TUHgNEJOAC6sNFC63CMRQx3jy0woxN76VX3lfP3jz3h4nI4flp2JGnnOO0oHXrUucv/RmyfOdoOLqOJxxcd65geEAtKxn/jebRas4DeiE5y4z2M6ROtFpDtp933PqY4+cxrytAsRv2cdtZ1xb4Hju9j6IV43U46/eriosvuKl/LeE2HCyDGyvdhfMR1Jb3WADA2Ag6ALqyx9qbZzSn9M1rAAVB3cV1JrzUAjI2AA6ALs+bMz25O6R8BBzDVxXUlvdYAMDYCDoAu2S52/Ag4gKnM9rAA3RFwAHRp9TU3zm5S6Q8BBzCVxfUkvcYAMHYCDoAu2U1l/Ag4gKnM7ikA3RFwAPTAegu2zm5U6T0BBzBVxXUkvbYA0B4BB0APzFl5zexmld575MnXirfe+cNyP3jr37MyAHUU15H02gJAewQcAD2y4cbbZTesADCauH6k1xQA2ifgAOiRleetk920AsBo4vqRXlMAaJ+AA6CHjOIAoB1GbwD0joADoIfmrrJWdvMKAMOJ60Z6LQGgMwIOgB6zowoAY2HnFIDeEnAA9NiMmfOKzbfePbuRBYCGuE7E9SK9hgDQOQEHQB+svubG2c0sADTEdSK9dgDQHQEHQJ9suNCCowDk4vqQXjMA6J6AA6BPZs2Zv/RGdlF2YwvAIFtUXh/SawYA3RNwAPTR/DU2anFzC8CgiutCeq0AoDcEHAB9tt6CLbMbXAAGT1wP0msEAL0j4AAYBxst3DG70QVgcMR1IL02ANBbAg6AcTBz9qrFZlvsmt3wAjD1Rfsf14H02gBAbwk4AMbJ3FXWKiw6CjBoFpXtf3pNAKD3BBwA4+gDq67X4uYXgKkq2v30WgBAfwg4AMbZvPkbZDfAAEw90d6n1wAA+kfAATABhBwAU5twA2D8CTgAJsiy6SrW5ACYWhaZlgIwQQQcABMoFp6zuwrA1BDtuQVFASaOgANggsXWgRst3DG7UQagPqIdtxUswMQScABMEust2DK7YQZg8ov2O23TARh/Ag6ASWT+GhsV1uUAqItFZbudtuUATAwBB8AkM2vO/GLDhdu1uJEGYLKIdjra67QNB2DiCDgAJqnV19y42Hzr3bObagAmTrTL0T6nbTYAE0/AATCJzZg5r1hvwdbZDTYA4y/a42iX07YagMlBwAFQA7Ht4IYbm7YCMBGi/bX9K8DkJ+AAqJGV560j6AAYJ9HeRrubtsUATE4CDoAamrPymqauAPRJtK/RzqZtLwCTm4ADoMamzVilXOxu4013zG7QARi7aEejPY12NW1rAagHAQfAFBHbFa6x9qbFRguFHQBjEe1ltJu2ewWYGgQcAFNQ/AI5b7X1i7XX//B7ozsWZTf2AINlUdkeRrsY7aORGgBTj4ADYEDMnrN6MW/+BsWa62xazi/fcOF2xSYf2qnYbItdi8233r28+c87BAB1sKhsx6I9i3Yt2rdo56K9i3Yv2r+0TQRg6hFwAAAAALUn4AAAAABqT8ABAAAA1J6AAwAAAKg9AQcAAABQewIOAAAAoPYEHAAAAEDtCTgAAACA2hNwAAAAALUn4AAAAABqT8ABAAAA1J6AAwAAAKg9AQcAAABQewIOAAAAoPYEHAAAAEDtCTgAAACA2hNwAAAAALUn4AAAAABqT8ABAAAA1J6AAwAAAKg9AQcAAABQewIOAAAAoPYEHAAAAEDtCTgAAACA2hNwAAAAALUn4AAAAABqT8ABAAAA1J6AAwAAAKg9AQcAAABQewIOAAAAoPYEHAAAAEDtCTgAAACA2hNwAAAAALUn4AAAAABqT8ABAAAA1J6AAwAAAKg9AQcAAABQewIOAAAAoPYEHAAAAEDtCTgAAACA2hNwAAAAALUn4AAAAABqT8ABAAAA1J6AAwAAAKg9AQcAAABQewIOAAAAoPYEHAAAAEDtCTgAAACA2hNwAAAAALUn4AAAAABqT8ABAAAA1J6AAwAAAKg9AQcAAABQewIOAAAAoPYEHAAAAEDtCTgAAACA2hNwAAAAALUn4AAAAABqT8ABAAAA1J6AAwAAAKg9AQcAAABQewIOAAAAoPYEHAAAAEDtCTgAAACA2hNwAAAAALUn4AAAAABqT8ABAONgrXU2LLbcavti1932KQ444Mji6GNPKU497fzivPOvKC65dElxxZU3FVddfQs1Fe9fvI/xfsb7Gu9vvM/xfsf7Hu9/+pkAAHpLwAEAPTZn7vziw1tsW+y9z+LixJPOFl5Qis9BfB7icxGfj/icpJ8dAKBzAg4A6IE111pQ7LzzXsXxx5+ZdWxhOPF5ic9NfH7SzxQA0B4BBwB0KH6B/8d//ET5q3zacU2dfc6lxZFHnljstdeBxXY77FpsutnWxbrrbVysutraxew5qxbTps/N6qc+4v2L9zHez3hf4/2N9zne73jf4/1PPxOp+BzF58nIDgDojIADANq0/gYLy/UV0g5qU2f1xLOLPRbtX3Z0566iw8rs8nMQn4f4XMTnI/3MVMXnKz5naR0AwPAEHAAwRhsv3KI46qiTs85ow2FHHF98ZJudBBqMSXxO4vMSn5v0s9QQn7f43KXnAgA5AQcAjGLBhpsNG2zEL/ExFSGmJ6TnwVjF5yc+R8ON7IjPX3wO0/MAgCECDgAYxgfmrTXsVJTFBx9dbLiRDie9F5+r+Hyln7kQn8f4XKbnAAACDgBoKRZ7vPSy67MO5n77H16ssdYGWXnotficxect/QzG5zI+n2l5ABh0Ag4A/j979/5uVX0fePwPidYgQQEjiCIM3i+RCIIJIl4QL+AVREQRRRRBMSoo3u/GW/ASvMRLYmpjE2u07fPMtJM+SfpMm6bTTqfTtJ1M+kzTNNM0zZp+tt0ne3+/+8C5YHI+Z79+eD1PwvqudXCf7/eH9Wbt76JDvK5zzdoN1U3lpZetbaZNn1WNh49azLuYf+WcjHnq9bIA8EsCBwD8h3nzFjU77n606yby+o1bW2++KMfCr1rMw5iPnfMz5mvM23IsAPQjgQMA/t0Fy1dW/0K+5IzzqnHw6xbzspyrMX/LcQDQbwQOAPralKmHNOvWbaqe2rCBKGNZzM/yaY6YxzGfy7EA0C8EDgD6Vrx285atO4p/CV9VjYOxqtyENOaz18kC0K8EDgD60jHHzq3221jgzRQkFPO2cx7HvI75XY4DgPFO4ACg75xw4vyuG8I7tj1oI1FSi/kb87hzXsc8L8cBwHgmcADQV8q4sXnL9mbGoXOqcZBNzOOYzyIHAP1K4ACgb8Rj+503fzdsuq2ZetCMahxkFfM55nXnPPd1FQD6hcABQF+IjRc799yIm8DJU6ZX4yC7mNedkSPmvY1HAegHAgcA4168OrPzbSnxGL8nNxjPYn53fl0l5r9XyAIw3gkcAIx769ZtGrjRi40Y7blBP4h53rnxaKyDcgwAjCcCBwDj2gXLV3btR+BtKfSTmO+d8z/WQzkGAMYLgQOAcWvevEVdN3cLFi6pxsB4F/O+cx3EuijHAMB4IHAAMC4dPO3wrk1FL1i+qhoD/SLmf3stxLqI9VGOAYDsBA4AxqU1azcM3NBdv3FrdRz6TayD9pqI9VEeB4DsBA4Axp2FxSP5s2Z7RSbEOuhcF7FOyjEAkJnAAcC4csCB05rtdz40cBO35IzzqjHQr2I9tNdGrJNYL+UYAMhK4ABgXFmxYrWvpsBudH5VJdZLeRwAshI4ABg3Dp/V/Qi+V8JCrXx1bKybcgwAZCRwADBuXHHFdQM3bZdetrY6Dnwo1kd7rcS6KY8DQEYCBwDjwpwjj+/6V+lp02dVY4APxfroXC+xfsoxAJCNwAHAuND59MYFy1dVx4FusU48xQHAeCJwAJDeYTOP7PrX6E9Om1mNAbrFOulcN7GOyjEAkInAAUB6nW9OueiSNdVxoLdYL+21440qAGQncACQ2v4Tp3b9K/Ss2d4IAUMV66Vz/cR6KscAQBYCBwCpLVy4ZODmbP36zdVxYPdi3bTXUKyn8jgAZCFwAJDa+mt/eXM275TF1XFg92LdDETCa0VCAPISOABI6+Bph3c9Xj9h/8nVGGD3Yt10rqNYV+UYAMhA4AAgrUWLlg7clK28fF11HBiaWD/ttRTrqjwOABkIHACktW7dpoGbspPmnlodB4Ym1k97LcW6Ko8DQAYCBwAplW9PmTjJ2x/62RHHfKY5ZdFlXcoxDC7WT+d68jYVADISOABI6bjjTx64GfP2FLbc/ZvNm7/bDHjj/X+rxrB7nW9TifVVHgeAsU7gACClc5ZdNHAzduZZy6vj/WTWkac09z/zrT2658k/aG5/+L3mpju/3Fyy9t7mU/PPq66VlcAxerGO2msq1ld5HADGOoEDgJQ6Xw971NGfqo73k+NOOrvr5n44dr71d83FV97T7LvfAdV1MxE4Ri/W0cBTUV4XC0BCAgcAKe24+9GBm7F+339jNIGj7aHnvtscOHVmde0sBI7R69yHI9ZXeRwAxjqBA4B0ph0ya+BGbPOW7dXxfrM3Ake456k/rK6dhcCxd8R6aq+tWGflcQAYywQOANI54cT5Azdhq1evr473m16BY+u9X2sOmnZEl+mHHdccdcLiZtnFtzQP7Px2dU44bek11fUzEDj2jlhP7bUV66w8DgBjmcABQDqLT182cBO2dOmF1fF+0ytwxEai5bjSlrveqs677YFvVOMyEDj2jlhP7bUV66w8DgBjmcABQDorVqweuAmbd8ri6ni/GWngmDbjmFYI6DzvqS/9VTUuA4Fj74j11F5bsc7K4wAwlgkcAKSzZu2GgZuwfn+DShhp4AjPvfW/u87b9c4/VmNKcxcsbzbe9mrz6K7vNS/+1j80X3rvX5oX3v5R8/hL329uuOO1ZsFpK6tz9uST049svbo29gF59s0fNK98459b135s15+1njSZ99lLmo/tM7E6r204gWPS5EObG7e90Tqn0+nLfN2p800qsc7K4wAwlgkcAKRz/catAzdhMw6dUx3vN6MJHM9/9Ydd5z375t9UY9rmHH1q88DO71Q/q5cIFTPnnFxdoxTRYuW6B5uXv/6T6hql2DfksNlzq2uEoQaO/SZMae5/5ls9rz1h/4Oq8f0m1lN7bcU6K48DwFgmcACQzi1bdwzchE2eMr063m9GGjhmzp5bfUVl2yMfVOPC3IUrhhQhOn3hyz9ofQ2mvFbbPvt+orn5nrer83bnpd/+p+aIYz9bXWsogSNiym0Pvltd8/Ov/EXqV+TuTbGe2msr1ll5HADGMoEDgHS2bX9g4CZswv6Tq+P9ZiSBI+LCXU/8fnXeojPXVmOnTpvT+rpIOfbJV/+yue6WXc2VG59sBYZd7/y4GnPv04O/enbtjU9X48PTr/91s+Pz/7l56LnvNq+997Oex+NrJp3XGkrg2HDry9W1dn7lb1tvlynH9qtYT+21FeusPA4AY5nAAUA6O+5+dOAmbJ99B9+XoV/0Chxxwz9h4kFdIgrMOmJ+s+yim5vHdn2vOmewN6isu2lnNTbiRLknxvQZx7Y2KS3HHn3i6dU1jzjmM83r3/zXrnERURYsXtU1Lvbm6BVirrzhqa5xewocq9Y/UrOG+1AAADBWSURBVF1j1zv/t/W1m/Lv1s9iPbXXVqyz8jgAjGUCBwDptG/AQnmsH/UKHMO19d6vNRMnHVxdO8RGn51j4wmKMm60LT5nfXXt2Dy0HHfT9je7xkSQiM1Ly3Fhv49Pbp54+c+7xsfXXzrH7C5wnHPhluaND37RdfzVd3/anDT//OpnYX0BkJfAAUA6bsC6jTZwrNnwRHXNTvF2kaUX3jQg3mhSjmmbfNDs6vrxNZbOMfv8xqRqP494SqO8VqdzL95aXbdzf4/BAsfC01c3r33z513HXn//5z2/isOHrC8AshI4AEjHV1S6jTZwhHg7ymGzT6quPVz77ndAde0btr3eNea4uUurMResuqO6VqfD58xrHnr+j7vMPmrBwPFegWPO0Qtbm5J2/fkHv2jOvcTbQQbjKyoAZCZwAJCOTUa7DRY44imJ0v3P/lFrA9Kdb/1dNT72wIg3q5TXL8XXU+JNJmev2NSsvOah5qpNzzTrb36hWX/Liz038rxx2xtd55932eeqMZ8+9cLq5wxHGThCr/1AVl/rpn13bDIKQGYCBwDpeE1st16BY09vUYlIseb6z1fn3f/Mt6qxbfE2lWu3frF5/qs/rM7bnTJwXH5tveFnPG1R/rzh6BU4ern0qvuqc/klr4kFIDOBA4B0rt+4deAmbMahc6rj/WYkgaNt2yMfVOce+6kzqnGfOXNN9XWPoSoDx9WbvlCNibellD9zOIYaOOK1s0edsLg6nw/FemqvrVhn5XEAGMsEDgDSWbN2w8BN2FFHf6o63m9GEzhOP/fa6txy09ETTl5WbdQZHnruu82VG59sbTwab085bek1zZJzr6vGlYEjzinHjHb/j6EGjvD5V/6i2W/ClOoaTGitp/bainVWHgeAsUzgACCdFStWD9yEzTvFv8aPJnAcdfziPZ776It/0nU8noKIoFFeK/TaZLQMHBddeXc15vhPL62uNRyDBY54QuX2h9+r/jz2CimvwYTWemqvrVhn5XEAGMsEDgDSWXz6soGbsKVLR7c55XgwmsDR640mW+56a+B4vL2kPH7N5ueq67QNJXDEK1rLMfH0R3mt4egVOOLVs/t9fHIzZeqsat+QeJvKgsWrquv0u1hP7bUV66w8DgBjmcABQDonnDh/4CZs9ereTxL0k9EEjovW7KjOvXrTswPHTzv76ur4qUuuqK7TNpTAEcEhAkPnmNi8tLxWpyOO+Uzz1Jf+R5fOjUl7BY4J+x80cDz+zuXPjOgx+aDZ1c/qZ7Ge2msr1ll5HADGMoEDgHSmHTJr4CZs85bt1fF+M9LAEaHhC1/+QXVuRI32mDPO3VAdP2v5jdW12uKpiHJ8GTjCAzu/3TXmxbd/1HzigEOqcW1XXPd41/g33v+3ZtLkQweO9woc5TVu2PZ6NSa+vlKO62exntprK9ZZeRwAxjKBA4CUdtz96MCN2MRJU6vj/WS4gWOffT/RChHxFER53gtv/6hrA85e135w53eafX5jUnXdk+af3+x658fV+Ju2v1mNjUhSjrv9od9pfaWkHDt3wfLmlW/8c9fYe5/+w64xZeCIAFJeZ+Kkg5unX//r6ueed+mt1dh+FOuovaZifZXHAWCsEzgASGn9tZsHbsb6/U0qvSJEiM1BS0+++pe7fd3rsotv6bp2xJBn36yf8ohrnb/ytubUM9Y05168tbntwXeb19+v37QSbr3vnerv/LF9JlZPcYT4+1129QOtPTnOXrGpFS7K60a8mLtwRdf1hhI4QkSY8noRT2KvkXJsv+l8g0qsr/I4AIx1AgcAKZ2z7KKBm7Ezz1peHe8ngwWO4Vp/y4vVtUO8BrYcOxwRMsprhogK5eafQ3HxlfdU1xpq4AhXb/pCdc2Hnv/jnk+l9JNYR+01FeurPA4AY53AAUBKxx1/8i//tXl9f/9r82gDR0SGpRfu/jOMPTAiGpTnlq7/3MutWND5Zy9//SeDxoNZR8xvPbVRXqeXV9/9aXPh6jura4ThBI7YCPWxXX9WXf/KjU9WY/tJrKP2mor1VR4HgLFO4AAgpf0n/nK/gNDP+3AMJ3B86b1/aXa+9ff/foP/veaGO15rPnPmmq49N3Zn3mcvaT2NUb6NJDz+0veb05aua42Lt7CUx/f05pXLrrp/0NARX6nZsuOrrRhSnts2nMARjjzutOa1937WdU58dSW+wlKO7Qed+2+EWF/lGAAY6wQOANJat27TwA3ZSXNPrY7z0Zh+2HGtTUrjqY/F56zfq/tXzJw9t1lw2srW/hunL1vfHP/ppV2ve+WjEeunvZZiXZXHASADgQOAtBYtWjpwU7by8g+fHgCGL9ZPey3FuiqPA0AGAgcAaR087fCux+on7F+/YhTYvVg3neso1lU5BgAyEDgASK3zdbHzTllcHQd2L9ZNew15PSwAmQkcAKS2cOGSX96c9fnbVGAkOt+eEuupPA4AWQgcAKRWvk1l1uyjqzFAb7FeOtePt6cAkJnAAUB6K1asHrhBu+iSNdVxoLdYL+21E+uoPA4AmQgcAKR32Mwju/4V+pPTZlZjgG6xTjrXTayjcgwAZCJwADAuXHHFdQM3ahcsX1UdB7rFOmmvmVg/5XEAyEbgAGBcmHPk8V3/Gj1t+qxqDPChWB+d6yXWTzkGALIROAAYNzqf4rj0srXVceBDsT48vQHAeCNwADBuHD6r+40QRx39qWoM9LtYF53rJNZNOQYAMhI4ABhXOt+ocv3GrdVx6HexLtprxJtTABhPBA4AxpUDDpzWbL/zoYEbuCVnnFeNgX4V66G9NmKdxHopxwBAVgIHAOPOwoVLuh7BnzXbI/gQ66BzXcQ6KccAQGYCBwDj0pq1G3xVBTp0fjUl1kd5HACyEzgAGJcOnnZ4s+PuRwdu6C5YvqoaA/0i5n97LcS6iPVRjgGA7AQOAMatefMWdT2Sv8Aj+fShmPed6yDWRTkGAMYDgQOAce2C5Su7bu68OpZ+Ur4SNtZDOQYAxguBA4Bxb926TQM3eHdse7CZceicagyMNzHPY763536sg3IMAIwnAgcA496UqYc0t2zdMXCjt3nL9mbqQTOqcTBexPyOed6e8zH/Yx2U4wBgPBE4AOgLh886umvT0Rs23dZMnjK9GgfZxbyO+d2e6zHvY/6X4wBgvBE4AOgbxxw7t2s/grgJ9CQH40nM5864EWLel+MAYDwSOADoKyecOL/r5i8e47cnB+NBzOPOr6WEmO/lOAAYrwQOAPpOGTliI0ZvVyGzmL+dG4qKGwD0I4EDgL4Uj+137skRFixcUo2DsS7mbec8jnntaykA9COBA4C+FRsvdr5dJVywfFU1DsaqmK+d8zfmsw1FAehXAgcAfS1enblu3aaum8TrN25tZs12k8jYFfMz5mnnvI157FWwAPQzgQMAPhb/Er6y62YxLDnjvGoc/LrFvCznaszfchwA9BuBAwD+w7x5i6p9OeJfyW1AylgQ87B8aiPma8zbciwA9COBAwA6HDzt8GbN2g3Vv5BfetnaZtr0WdV4+KjFvIv5V87JmKcxX8vxANCvBA4A6GHhwiXN9jsfqm4qY1PHT06bWY2HvS3mWbmJaIh5GfOzHA8A/U7gAIBBHHDgtGbFitXVDWa46JI1NiLlIxHzKuZXOedCzMeYl+U5AIDAAQB7FK/dvOKK66qbzbB+/eZm3imLmwn7T67Og6GK+RPzKOZTOcdCzD+vfwWA3RM4AGCI5hx5/KChI6y8fF1z0txTm4mTplbnQinmScyXmDflXOoMGzHvynMBgJrAAQDDdNjMIwf96kpb/Ev8mWctb735QvAgxDyI+RDzYrAnNdpifsU8K68BAAxO4ACAEdp/4tTWZo/rr939zWrYvGV7s3r1+mbp0gtbX0WIG90Zh85pJk+Z3vp6wj77TqyuTx7x+4vfY/w+4/cav9/4PcfvO37v8fsv50Qp5lHMp5hX5fUBgD0TOABgL4jXdS5atLRZt25TdeMKg4n5EvPG614BYPQEDgDYy+Jf4I87/uTmnGUXtf5Vfsfdj1Y3tvSfmAcxH2JexPzwpAYA7F0CBwD8Ckw7ZFZzwonzm8WnL2vtr7Bm7Ybm+o1bm1u27mi2bX9ABEkufn/xe4zfZ/xe4/cbv+f4fcfvPX7/5ZwAAPYugQMAAABIT+AAAAAA0hM4AAAAgPQEDgAAACA9gQMAAABIT+AAAAAA0hM4AAAAgPQEDgAAACA9gQMAAABIT+AAAAAA0hM4AAAAgPQEDgAAACA9gQMAAABIT+AAAAAA0hM4AAAAgPQEDgAAACA9gQMAAABIT+AAAAAA0hM4AAAAgPQEDgAAACA9gQMAAABIT+AAAAAA0hM4AAAAgPQEDgAAACA9gQMAAABIT+AAAAAA0hM4AAAAgPQEDgAAACA9gQMAAABIT+AAAAAA0hM4AAAAgPQEDgAAACA9gQMAAABIT+AAAAAA0hM4AAAAgPQEDgAAACA9gQMAAABIT+AAAAAA0hM4AAAAgPQEDgAAACA9gQMAAABIT+AAAAAA0hM4AAAAgPQEDgAAACA9gQMAAABIT+AAAAAA0hM4AAAAgPQEDgAAACA9gQMAAABIT+AAAAAA0hM4AAAAgPQEDgAAACA9gQMAAABIT+AAAAAA0hM4AAAAgPQEDgAAACA9gQMAAABIT+AAAAAA0hM4AAAAgPQEDgAAACA9gQMAAABIT+AAAAAA0hM4AAAAgPQEDgAAACA9gQMACrOOPKW5/5lvdbnsqvurcQxN+/N8/KXvN2/+btPS/lxnHH5iNX6oJh80u7nvmf/auk77us+++YPW/z9u7tJqPAAwvgkcAFA47qSzB26Y226688vVOIam1+fZtub6z1fjh+riK++prte28PTV1XgAYHwTOACg0OuGXOAYuV6fZ9vTr/91NX6oHtv1vep6AgcA9C+BAwAKvW7IBY6R6/V5dpq7cEV1zp4cdfzi6jqdBA4A6D8CBwAUet2QCxwj1+vz7LTlrreqc/Zkw9aXqut0EjgAoP8IHABQ6HVDLnCMXK/Ps9PLX/9JM3HSwdV5g9nnNyY1L7z9o+o6nQQOAOg/AgcAFHrdkAscI9fr83ztvZ91/f9zLtxSnTeY05au6zr3S+/9S3V9gQMA+o/AAQCFXjfkeztw7LvfAc1ZF9zY3Pbgu62NNuMphl3v/Lh56kt/1Wy992vN4nPWNx/bZ2J13u7MXbC82Xjbq82ju77XvPhb/9C68Y8nHeL1rDfc8Vqz4LSV1Tmdzrv01mbL3b85YPV1j7X+fMon/1NzzZbnmqdf+5/Nq+/+tHn+qz9sTpp/fnX+YHp9nrfe907X/7/nqT+szhvM7Q+/V1zrt6vrDyVwTNj/oOas5f/+O3jo3dbnHp9//B7i97H90d9tfR6TDpxRnVfaG5/bRzEfAKDfCBwAUOh1Q743A8cpiy5r3biWP6P0yBf/tDn6xNOr80tzjj61eWDnd6rze4mQMHPOydU1Qtycd4594uU/b2YftaDZ+ZW/ra4zlIDQ1uvzjKcw3nj/3wb+f/zvGYefWJ1bmnzQ7Orpj/KJjqH8/SIYfOHLP6jOK7349o+acy/ZWp3fabSf296eDwDQrwQOACj0uiHfW4Fj2cW3NK998+fV9QcT/4p/wsnLquu0xRtI4l/7y/N2J27sp804prpWeaP+/G/+n+bJV/+yOj/s6WmQTr0+z3jaJGJL55+t2fBEdW7poivv7jrn0Rf/pOcbVXqFhLaV6x5s3vjgF9U5u3PdLbuq67SN5nPb2/MBAPqZwAEAhV435HsjcMz77CVdTy20xddI7nnyD5oHdn67dQNbHt/51t/1/KrE1GlzWl9FKcfHzXXckF+58cnWzXeva977dP2VkPJGfXfmL7q0On8wvT7PBadf3vp6SOefxVczynNL8fWbznMuXH1n64a/vP5ggaP8mW273vnH5v5nvtWKLoNtYLpq/SPV9cJIP7e9PR8AoN8JHABQ6HVDPtrAEfs97Hzr77uu+fr7P28uWrOj9VaQ9rj9J01rNtz6cvXzr9n8XHXNdTftrMatvfHpaq+G6TOO7fkViPLrDoPdqMffc9sj7zerrnm4Wb5qW7PymoeambPnVn+fwfT6POMrIvGZlDfw8WRHeX5b+aRG7DFy4NSZrWhQXr9X4Pjk9COrnxf/bZdf+0iz34QpA+Pi9xH/neXmpa9/819bf4fyuiP53D6K+QAA/U7gAIBCrxvy0QaOFZdvr6552dUPVOPa7nj4m11j40mN/T4+uWvMY7v+rGtMPAFRxo22CArlz79k7b1dY3rdqMc+Er1u6oej1+cZT1LEsRu2vd7155vv+kp1fls8ldI5NjYXjT//zJlrquv3ChxXbXqmGhdfVynHtfV62iM2/CzHjeRz+yjmAwD0O4EDAAq9bshHGzjKGBH7YMSbM8pxbb2+dhFfaegcc/qy9c3SC28aUB7vFJtzltcr95XodaN+0ikXVNcarl6f53mXfa517PhPL+3689hPZMLEg6prxFMN5VdH2vtZnHHuhur6vQJH7I3ROSaCUOfTEr3E10Q6z4mnOCZNPrRrzEg+t49iPgBAvxM4AKDQ64Z8NIEjXhdabmp57dYvVuNKr3zjn7vOia86lGOGKm6ey/+meHqic0yvG/XyOiPR6/OMzULbx5945b93HVt64ebqGqedfXXXmAgC7adVll10c3X9MnAccexnqzGxR0n5c0oRYsrzFp25tmvMcD+3sTAfAGA8EjgAoNDrhnw0gaPXVyg23vZqc/KpF+3W81/9Ydc5m7a9WV27U9zwx4382Ss2tfZ7iK9krL/5hWb9LS/23Mfhxm1vdJ0/3Bv1oer1eXbenF921f1dx2Kjz/Iatz/8XteY2GukfSz2tyivXwaOXhEkXs9a/pzSnKMXVud1/uww3M/tVzUfAKDfCBwAUOh1Qz6awHHuJVur643EbQ98o7p2iLepxBMA5Q3wnvw6A8eVNzw1cDz+/vHVj/axeLPIjJknDByPr9e89t7Puo4f1rHJ6aVX3VddvwwcsddGOabzGoOJr7CU5432c/uo5wMA9CuBAwAKvW7IRxM4YvPI8nojcedjv1ddO54GeOm3/6kaOxR7ulGPqFD+vJHo9XnGkyWdY+JtI53H12x4YuBYfJ2l81j5itsrrnu8un4ZOK7e9Gw1JsJJ+XftpXybShkWhvu5fZTzAQD6mcABAIVeN+RjIXDc9Xj3DW1sPPnaN39ejXvoue+29peIjUfj7SmnLb2mWXLuddW4X2fgiK9kdI4p99iIDUDbxx7d9b2uY/Hf1Xlur3hRBo4IJuWYeH1u+XftJZ4Y6TwvPqfO48P93D6q+QAA/U7gAIBCrxvy0QSOcy+uv5IQ4WHK1FnD8okDDum67qMv/knXNePGOq5b/vzQa5PRX2fgKH92fBWkfMvJ3AXLmyOPO63rz3a98+PqLSvXbH6uun4ZOHq9lvWYE5dUf9dSbAhanhd7mnSOGe7n9lHNBwDodwIHABR63ZCPJnDEZpbl9WJjzXLccBw+Z151zbjRL8e1jfXAEeJrK51jNt/1ldarbDv/rNfGmkMJHL1+B8suvqW6VileRVued8HK27vGDPdz6/V3Ge18AAAEDgCo9LohH03giCcOyn0c4umLctxwlF/pCKcuuaIa15YhcMw5+tSuMS9//SfNC2//qOvPTjj5nOq8oQSOiZMO7trINMS+H+W1SvFVmvLas448pWvMcD+3j2I+AAACBwBUet2QjyZwhG2PfFBdM17nWo4rxdMC5c16OOPcDdX1zlp+YzWubcHiVdX4MjIM90Z9qHp9nuXPbnvo+T+uxrZ9/pW/qMaHoQSOUP4OYm+No088vRrXNv2w45pX3/1p1zmPv/T9atxIPrfy7xJGMx8AAIEDACq9bshHGzhiQ9Dymq/+zv9rTlu6rhobYk+K2BgzbsLjhrkc1+vv+ODO77TOK6910vzzW3tXlONv2t79dY+R3KgPRa+/62CB44JVd1Rj2wb7GsdQA8fchSuqcbGZ6YzDT6zGxhtWHnnhv1Xjl110czV2JJ/b3p4PAIDAAQCVXjfkIb5GMBxzjl7Ydd0ICuU1w91P/pdm+aptrVe+nnnBDc1Vm55pnnnjf3WNia9XHDZ77sC19tn3E82zb/6gulb83PNX3tacesaa1maWtz34bvP6+/WbVsKt973T9fcbyY36UPT6PAcLHJMOnFE9NRHiv/+gaUdU48NQA0e4+Z63q7ERf67d+sXmzPM3tt42s/bGp6sNT8P9z3yr+dg+E6trjvRz25vzAQAQOACg0uuGfCTiOp3XnbD/Qc0DO79djRuKdTftrP6e8brUctxwxN+l83ojvVHfk16f52CBI2y992vV+N3tlzGcwBEBpXzt7FA8++bfNIfMPL66Xhjp57a35wMA9DuBAwAKvW7IR6IMHGG/CVNaX3d544NfVON7iZvlS6+6r7pO2xXXPd762kJ5Xun6z71c7W8Rm3h2fqVlpDfqe9Lr89xd4Ji/6NJqfGyqWo5rG07gCBE57nri96tzBhNfVZk245jqOm2j+dz29nwAgH4mcABAodcN+Uj0ChwDP2Pu0ub2h99rRYbyvBB/Hq9JLd/Y0cu8z17SehKg101ybIrZ3q/h6k3PVsc737wymhv13en1ee4ucIR4YqI9Nr4u0mtvkbbhBo62iCb3P/tHPb/CE5/lI1/80+bcS7b2/FpKp73xue3N+QAA/UrgAIBfo/0+Prn16tPTll7T2sBy8TnrW0Eg9tgox+5JvPUj3pay9MLNrescPmdeNYbalKmzmk+femFrD454E80piy5rps84thr3q7A35wMA9BuBAwAAAEhP4AAAAADSEzgAAACA9AQOAAAAID2BAwAAAEhP4AAAAADSEzgAAACA9AQOAAAAID2BAwAAAEhP4AAAAADSEzgAAACA9AQOAAAAID2BAwAAAEhP4AAAAADSEzgAAACA9AQOAAAAID2BAwAAAEhP4AAAAADSEzgAAACA9AQOAAAAID2BAwAAAEhP4AAAAADSEzgAAACA9AQOAAAAID2BAwAAAEhP4AAAAADSEzgAAACA9AQOAAAAID2BAwAAAEhP4AAAAADSEzgAAACA9AQOAAAAID2BAwAAAEhP4AAAAADSEzgAAACA9AQOAAAAID2BAwAAAEhP4AAAAADSEzgAAACA9AQOAAAAID2BAwAAAEhP4AAAAADSEzgAAACA9AQOAAAAID2BAwAAAEhP4AAAAADSEzgAAACA9AQOAAAAID2BAwAAAEhP4AAAAADSEzgAAACA9AQOAAAAID2BAwAAAEhP4AAAAADSEzgAAACA9AQOAAAAID2BAwAAAEhP4AAAAADSEzgAAACA9AQOAAAAID2BAwAAAEhP4AAAAADSEzgAAACA9AQOAAAAID2BAwAAAEhP4AAAAADSEzgAAACA9AQOAAAAID2BAwAAAEhP4AAAAADSEzgAAACA9AQOAAAAID2BAwAAAEhP4AAAAADSEzgAAACA9AQOAAAAID2BAwAAAEhP4AAAAADSEzgAAACA9AQOAAAAID2BAwAAAEhP4AAAAADSEzgAAACA9AQOAAAAID2BAwAAAEhP4AAAAADSEzgAAACA9AQOAAAAID2BAwAAAEhP4AAAAADSEzgAAACA9AQOAAAAID2BAwAAAEhP4AAAAADSEzgAAACA9AQOAAAAID2BAwAAAEhP4AAAAADSEzgAAACA9AQOAAAAID2BAwAAAEhP4AAAAADSEzgAAACA9AQOAAAAID2BAwAAAEhP4AAAAADSEzgAAACA9AQOAAAAID2BAwAAAEhP4AAAAADSEzgAAACA9AQOAAAAID2BAwAAAEhP4AAAAADSEzgAAACA9AQOAAAAID2BAwAAAEhP4AAAAADSEzgAAACA9AQOAAAAID2BAwAAAEhP4AAAAADSEzgAAACA9AQOAAAAID2BAwAAAEhP4AAAAADSEzgAAACA9AQOAAAAID2BAwAAAEhP4AAAAADSEzgAAACA9AQOAAAAID2BAwAAAEhP4AAAAADSEzgAAACA9AQOAAAAID2BAwAAAEhP4AAAAADSEzgAAACA9AQOAAAAID2BAwAAAEhP4AAAAADSEzgAAACA9AQOAAAAID2BAwAAAEhP4AAAAADSEzgAAACA9AQOAAAAID2BAwAAAEhP4AAAAADSEzgAAACA9AQOAAAAID2BAwAAAEhP4AAAAADSEzgAAACA9AQOAAAAID2BAwAAAEhP4AAAAADSEzgAAACA9AQOAAAAID2BAwAAAEhP4AAAAADSEzgAAACA9AQOAAAAID2BAwAAAEhP4AAAAADSEzgAAACA9AQOAAAAID2BAwAAAEhP4AAAAADSEzgAAACA9AQOAAAAID2BAwAAAEhP4AAAAADSEzgAAACA9AQOAAAAID2BAwAAAEhP4AAAAADSEzgAAACA9AQOAAAAID2BAwAAAEhP4AAAAADSEzgAAACA9AQOAAAAID2BAwAAAEhP4AAAAADSEzgAAACA9AQOAAAAID2BAwAAAEhP4AAAAADSEzgAAACA9AQOAAAAID2BAwAAAEhP4AAAAADSEzgAAACA9AQOAAAAID2BAwAAAEhP4AAAAADSEzgAAACA9AQOAAAAID2BAwAAAEhP4AAAAADSEzgAAACA9AQOAAAAID2BAwAAAEhP4AAAAADSEzgAAACA9AQOAAAAID2BAwAAAEhP4AAAAADSEzgAAACA9AQOAAAAID2BAwAAAEhP4AAAAADSEzgAAACA9AQOAAAAID2BAwAAAEhP4AAAAADSEzgAAACA9AQOAAAAID2BAwAAAEhP4AAAAADSEzgAAACA9AQOAAAAID2BAwAAAEhP4AAAAADSEzgAAACA9AQOAAAAID2BAwAAAEhP4AAAAADSEzgAAACA9AQOAAAAID2BAwAAAEhP4AAAAADSEzgAAACA9AQOAAAAID2BAwAAAEhP4AAAAADSEzgAAACA9AQOAAAAID2BAwAAAEhP4AAAAADSEzgAAACA9AQOAAAAID2BAwAAAEhP4AAAAADSEzgAAACA9AQOAAAAID2BAwAAAEhP4AAAAADSEzgAAACA9AQOAAAAID2BAwAAAEhP4AAAAADSEzgAAACA9AQOAAAAID2BAwAAAEhP4AAAAADSEzgAAACA9AQOAAAAID2BAwAAAEhP4AAAAADSEzgAAACA9AQOAAAAID2BAwAAAEhP4AAAAADSEzgAAACA9AQOAAAAID2BAwAAAEhP4AAAAADSEzgAAACA9AQOAAAAID2BAwAAAEhP4AAAAADSEzgAAACA9AQOAAAAID2BAwAAAEhP4AAAAADSEzgAAACA9AQOAAAAID2BAwAAAEhP4AAAAADSEzgAAACA9AQOAAAAID2BAwAAAEhP4AAAAADSEzgAAACA9AQOAAAAID2BAwAAAEhP4AAAAADSEzgAAACA9AQOAAAAID2BAwAAAEhP4AAAAADSEzgAAACA9AQOAAAAID2BAwAAAEhP4AAAAADSEzgAAACA9AQOAAAAID2BAwAAAEhP4AAAAADSEzgAAACA9AQOAAAAID2BAwAAAEhP4AAAAADSEzgAAACA9AQOAAAAID2BAwAAAEhP4AAAAADSEzgAAACA9AQOAAAAID2BAwAAAEhP4AAAAADSEzgAAACA9AQOAAAAID2BAwAAAEhP4AAAAADSEzgAAACA9AQOAAAAID2BAwAAAEhP4AAAAADSEzgAAACA9AQOAAAAID2BAwAAAEhP4AAAAADSEzgAAACA9AQOAAAAID2BAwAAAEhP4AAAAADSEzgAAACA9AQOAAAAID2BAwAAAEhP4AAAAADSEzgAAACA9AQOAAAAID2BAwAAAEhP4AAAAADSEzgAAACA9AQOAAAAID2BAwAAAEhP4AAAAADSEzgAAACA9AQOAAAAID2BAwAAAEhP4AAAAADSEzgAAACA9AQOAAAAID2BAwAAAEhP4AAAAADSEzgAAACA9AQOAAAAID2BAwAAAEhP4AAAAADSEzgAAACA9AQOAAAAID2BAwAAAEhP4AAAAADSEzgAAACA9AQOAAAAID2BAwAAAEhP4AAAAADSEzgAAACA9AQOAAAAID2BAwAAAEhP4AAAAADSEzgAAACA9AQOAAAAID2BAwAAAEhP4AAAAADSEzgAAACA9AQOAAAAID2BAwAAAEhP4AAAAADSEzgAAACA9AQOAAAAID2BAwAAAEhP4AAAAADSEzgAAACA9AQOAAAAID2BAwAAAEhP4AAAAADSEzgAAACA9AQOAAAAID2BAwAAAEhP4AAAAADSEzgAAACA9AQOAAAAID2BAwAAAEhP4AAAAADSEzgAAACA9AQOAAAAID2BAwAAAEhP4AAAAADSEzgAAACA9AQOAAAAID2BAwAAAEhP4AAAAADSEzgAAACA9AQOAAAAID2BAwAAAEhP4AAAAADSEzgAAACA9AQOAAAAID2BAwAAAEhP4AAAAADSEzgAAACA9AQOAAAAID2BAwAAAEhP4AAAAADSEzgAAACA9AQOAAAAID2BAwAAAEhP4AAAAADSEzgAAACA9AQOAAAAID2BAwAAAEhP4AAAAADSEzgAAACA9AQOAAAAID2BAwAAAEhP4AAAAADSEzgAAACA9AQOAAAAID2BAwAAAEhP4AAAAADSEzgAAACA9AQOAAAAID2BAwAAAEhP4AAAAADSEzgAAACA9AQOAAAAID2BAwAAAEhP4AAAAADSEzgAAACA9AQOAAAAID2BAwAAAEhP4AAAAADSEzgAAACA9AQOAAAAID2BAwAAAEhP4AAAAADSEzgAAACA9AQOAAAAID2BAwAAAEhP4AAAAADSEzgAAACA9AQOAAAAID2BAwAAAEhP4AAAAADSEzgAAACA9AQOAAAAID2BAwAAAEhP4AAAAADSEzgAAACA9AQOAAAAID2BAwAAAEhP4AAAAADSEzgAAACA9AQOAAAAID2BAwAAAEhP4AAAAADSEzgAAACA9AQOAAAAID2BAwAAAEhP4AAAAADSEzgAAACA9AQOAAAAID2BAwAAAEhP4AAAAADSEzgAAACA9AQOAAAAID2BAwAAAEhP4AAAAADSEzgAAACA9AQOAAAAID2BAwAAAEhP4AAAAADSEzgAAACA9AQOAAAAID2BAwAAAEhP4AAAAADSEzgAAACA9AQOAAAAID2BAwAAAEhP4AAAAADSEzgAAACA9AQOAAAAID2BAwAAAEhP4AAAAADSEzgAAACA9AQOAAAAID2BAwAAAEhP4AAAAADSEzgAAACA9AQOAAAAID2BAwAAAEhP4AAAAADSEzgAAACA9AQOAAAAID2BAwAAAEhP4AAAAADSEzgAAACA9AQOAAAAID2BAwAAAEhP4AAAAADSEzgAAACA9AQOAAAAID2BAwAAAEhP4AAAAADSEzgAAACA9AQOAAAAID2BAwAAAEhP4AAAAADSEzgAAACA9AQOAAAAID2BAwAAAEhP4AAAAADSEzgAAACA9AQOAAAAID2BAwAAAEhP4AAAAADSEzgAAACA9AQOAAAAID2BAwAAAEhP4AAAAADSEzgAAACA9AQOAAAAID2BAwAAAEhP4AAAAADSEzgAAACA9AQOAAAAID2BAwAAAEhP4ID/397d60Z1RWEY3jRBtBFlROMil+GKkoYroKRIikTyVbhASmgpuAQqJKhzASClRJYiuQIJUdLg7IUJSmYdBwG253zMs6SHYp8zY5tiS/vV/AAAABBP4AAAAADiCRwAAABAPIEDAAAAiCdwAAAAAPEEDgAAACCewAEAAADEEzgAAACAeAIHAAAAEE/gAAAAAOIJHAAAAEA8gQMAAACIJ3AAAAAA8QQOAAAAIJ7AAQAAAMQTOAAAAIB4AgcAAAAQT+AAAAAA4gkcAAAAQDyBAwAAAIgncAAAAADxBA4AAAAgnsABAAAAxBM4AAAAgHgCBwAAABBP4AAAAADiCRwAAABAPIEDAAAAiCdwAAAAAPEEDgAAACCewAEAAADEEzgAAACAeAIHAAAAEE/gAAAAAOIJHAAAAEA8gQMAAACIJ3AAAAAA8QQOAAAAIJ7AAQAAAMQTOAAAAIB4AgcAAAAQT+AAAAAA4gkcAAAAQDyBAwAAAIgncAAAAADxBA4AAAAgnsABAAAAxBM4AAAAgHgCBwAAABBP4AAAAADiCRwAAABAPIEDAAAAiCdwAAAAAPEEDgAAACCewAEAAADEEzgAAACAeAIHAAAAEE/gAAAAAOIJHAAAAEA8gQMAAACIJ3AAAAAA8QQOAAAAIJ7AAQAAAMQTOAAAAIB4AgcAAAAQT+AAAAAA4gkcAAAAQDyBAwAAAIgncAAAAADxBA4AAAAgnsABAAAAxBM4AAAAgHgCBwAAABBP4AAAAADiCRwAAABAPIEDAAAAiCdwAAAAAPEEDgAAACCewAEAAADEEzgAAACAeAIHAAAAEE/gAAAAAOIJHAAAAEA8gQMAAACIJ3AAAAAA8QQOAAAAIJ7AAQAAAMQTOAAAAIB4AgcAAAAQT+AAAAAA4gkcAAAAQDyBAwAAAIgncAAAAADxBA4AAAAgnsABAAAAxBM4AAAAgHgCBwAAABBP4AAAAADiCRwAAABAPIEDAAAAiCdwAAAAAPEEDgAAACCewAEAAADEEzgAAACAeAIHAAAAEE/gAAAAAOIJHAAAAEA8gQMAAACIJ3AAAAAA8QQOAAAAIJ7AAQAAAMQTOAAAAIB4AgcAAAAQT+AAAAAA4gkcAAAAQDyBAwAAAIgncAAAAADxBA4AAAAgnsABAAAAxBM4AAAAgHgCBwAAABBP4AAAAADiCRwAAABAPIEDAAAAiCdwAAAAAPEEDgAAACCewAEAAADEEzgAAACAeAIHAAAAEE/gAAAAAOIJHAAAAEA8gQMAAACIJ3AAAAAA8QQOAAAAIJ7AAQAAAMQTOAAAAIB4AgcAAAAQT+AAAAAA4gkcAAAAQDyBAwAAAIgncAAAAADxBA4AAAAgnsABAAAAxBM4AAAAgHgCBwAAABBP4AAAAADiCRwAAABAPIEDAAAAiCdwAAAAAPEEDgAAACCewAEAAADEEzgAAACAeAIHAAAAEE/gAAAAAOIJHAAAAEA8gQMAAACIJ3AAAAAA8QQOAAAAIJ7AAQAAAMQTOAAAAIB4AgcAAAAQT+AAAAAA4gkcAAAAQDyBAwAAAIgncAAAAADxxpz6BwAAACBZWwAAAABI0xYAAAAA0rQFAAAAgDRtAQAAACBNWwAAAABI0xYAAAAA0rQFAAAAgDRtAQAAACBNWwAAAABI0xYAAAAA0rQFAAAAgDRtAQAAACBNWwAAAABI0xYAAAAA0rQFAAAAgDRtAQAAACBNWwAAAABI0xYAAAAA0rQFAAAAgDRtAQAAACBNWwAAAABI0xYAAAAA0rQFAAAAgDRtAQAAACBNWwAAAABIM94uLAIAAACkqLYxXi1cAID39vb2Tu7cuXNycHAAcOlq/6l9aHNvAoAN1TbG0cIFADg5PDw8efnyJcDW1X60uUcBwL8cTeP5wgUAdtzDhw/bAQNgm2pf2tyrAOCDahvjycIFAHZYvSR882ABsAa1P23uWQAwTtvGuL9wAYAd9vjx43aoAFiD2p829ywAmH6fxk8LFwDYYcfHx+1QAbAGtT9t7lkAME7bxri5cAGAHSZwAGslcABwhmob4/r0buEiADvKW1SAtfIWFQAWVNOotvF+ni3cAMCO8iGjwFr5kFEAFlTT+Dj3Fm4AYIf5mlhgbXxNLABnqKbxcW4t3ADAjjs8PGwHDIBtqP1oc48CgA+qaXyca9ObhZsA2HF7e3vvXxJ+cHAAcOlq/6l9aHNvAoAPqmVU0/jPPBj9RgAAAIC1qpbRZn/0GwEAAADWan8szJXpxeg3AwAAAKxNNYxqGYtzd/QHAAAAAKxNNYwz5+p0PPqDAAAAANai2kU1jP+dX0Z/IAAAAMBaVLv45NTXqxyN/mAAAACAbTsaC18Ne9bcGv0JAAAAALatmsVnzaPRnwQAAABgW6pVfPbcmF6P/mQAAAAAl60aRbWKL5rboz8hAAAAwGWrRvFV89voTwoAAABwWapNfPV8N/0x+pMDAAAAXLRqEtUmzmW+n/4c/YcAAAAAXJRqEdUkznV+mP4a/YcBAAAAnLdqENUiLmR+HCIHAAAAcLGqPVSDuNCpeuLtKgAAAMBFqOZwYa/c2Jx6/4sPHgUAAADOU7WGc//MjU9NfYKpr5AFAAAAzkM1hnP7tpQvmdvT69F/MQAAAIBPqaZQbWEVc2N6NPovCQAAAHCWagnVFFY3t6aj0X9hAAAAgH8cjdOGsOq5Nv06HY/+BwAAAAC7q1pBNYNqBzFzdbo7vRj9DwIAAAB2R7WBagTVCmLnyrQ/PZjejP5HAgAAAN+eagDVAvbHaRv4pqZeglLvsbk3PZvejf4fAAAAAOSpM36d9evMX2f/qLehfO1cn25OP0/3p6fT83H6YSOvprej/4cBAAAAl6/O6HVWPxqnZ/cn4/QsX2f6OtvXGX9r8zdfu1/a8MoF7AAAAABJRU5ErkJggg==;" vertex="1" parent="1">
          <mxGeometry x="50" y="16.659999999999997" width="240" height="493.34" as="geometry" />
        </mxCell>
        <mxCell id="ZROLAFJUCEpGGBxkQ6_s-13" value="" style="endArrow=classic;html=1;exitX=0.625;exitY=0.351;exitDx=0;exitDy=0;exitPerimeter=0;fillColor=#6a00ff;strokeColor=#3700CC;entryX=-0.022;entryY=1.107;entryDx=0;entryDy=0;entryPerimeter=0;" edge="1" parent="1" source="ZROLAFJUCEpGGBxkQ6_s-12" target="ZROLAFJUCEpGGBxkQ6_s-14">
          <mxGeometry width="50" height="50" relative="1" as="geometry">
            <mxPoint x="430" y="220" as="sourcePoint" />
            <mxPoint x="440" y="190" as="targetPoint" />
          </mxGeometry>
        </mxCell>
        <mxCell id="ZROLAFJUCEpGGBxkQ6_s-14" value="&lt;b&gt;Button &lt;br&gt;&lt;/b&gt;Bydefault set all modifier by Material 3&lt;br&gt;avoid using this button multiple time for submission we need to use&amp;nbsp;" style="text;strokeColor=none;align=left;fillColor=none;html=1;verticalAlign=top;whiteSpace=wrap;rounded=0;" vertex="1" parent="1">
          <mxGeometry x="440" y="30" width="270" height="60" as="geometry" />
        </mxCell>
        <mxCell id="ZROLAFJUCEpGGBxkQ6_s-15" value="&lt;b&gt;Elevated Button:&lt;/b&gt;&lt;br&gt;used on top of image or tool bar&amp;nbsp;&lt;br&gt;we can use multiple place show as shadow button" style="text;strokeColor=none;align=left;fillColor=none;html=1;verticalAlign=top;whiteSpace=wrap;rounded=0;" vertex="1" parent="1">
          <mxGeometry x="440" y="130" width="280" height="80" as="geometry" />
        </mxCell>
        <mxCell id="ZROLAFJUCEpGGBxkQ6_s-17" value="" style="endArrow=classic;html=1;exitX=0.708;exitY=0.432;exitDx=0;exitDy=0;exitPerimeter=0;entryX=0;entryY=0.5;entryDx=0;entryDy=0;fillColor=#6a00ff;strokeColor=#3700CC;" edge="1" parent="1" source="ZROLAFJUCEpGGBxkQ6_s-12" target="ZROLAFJUCEpGGBxkQ6_s-15">
          <mxGeometry width="50" height="50" relative="1" as="geometry">
            <mxPoint x="430" y="310" as="sourcePoint" />
            <mxPoint x="480" y="260" as="targetPoint" />
          </mxGeometry>
        </mxCell>
        <mxCell id="ZROLAFJUCEpGGBxkQ6_s-18" value="&lt;b&gt;FilledTonalButton:&lt;/b&gt;&lt;br&gt;Use when we need to open on some other application&amp;nbsp;" style="text;strokeColor=none;align=left;fillColor=none;html=1;verticalAlign=middle;whiteSpace=wrap;rounded=0;" vertex="1" parent="1">
          <mxGeometry x="440" y="200" width="300" height="50" as="geometry" />
        </mxCell>
        <mxCell id="ZROLAFJUCEpGGBxkQ6_s-19" value="&lt;b&gt;Outlined Button:&lt;/b&gt;&lt;br&gt;Use when user want to go back or if already have account s&amp;nbsp;" style="text;strokeColor=none;align=left;fillColor=none;html=1;verticalAlign=middle;whiteSpace=wrap;rounded=0;" vertex="1" parent="1">
          <mxGeometry x="440" y="270" width="300" height="50" as="geometry" />
        </mxCell>
        <mxCell id="ZROLAFJUCEpGGBxkQ6_s-20" value="&lt;b&gt;Text Button&lt;/b&gt;" style="text;strokeColor=none;align=left;fillColor=none;html=1;verticalAlign=middle;whiteSpace=wrap;rounded=0;" vertex="1" parent="1">
          <mxGeometry x="440" y="340" width="300" height="50" as="geometry" />
        </mxCell>
        <mxCell id="ZROLAFJUCEpGGBxkQ6_s-21" value="" style="endArrow=classic;html=1;entryX=0;entryY=0.5;entryDx=0;entryDy=0;fillColor=#6a00ff;strokeColor=#3700CC;" edge="1" parent="1" target="ZROLAFJUCEpGGBxkQ6_s-18">
          <mxGeometry width="50" height="50" relative="1" as="geometry">
            <mxPoint x="220" y="270" as="sourcePoint" />
            <mxPoint x="270" y="220" as="targetPoint" />
          </mxGeometry>
        </mxCell>
        <mxCell id="ZROLAFJUCEpGGBxkQ6_s-22" value="" style="endArrow=classic;html=1;entryX=0;entryY=0.5;entryDx=0;entryDy=0;fillColor=#6a00ff;strokeColor=#3700CC;" edge="1" parent="1" target="ZROLAFJUCEpGGBxkQ6_s-19">
          <mxGeometry width="50" height="50" relative="1" as="geometry">
            <mxPoint x="200" y="305" as="sourcePoint" />
            <mxPoint x="420" y="260" as="targetPoint" />
          </mxGeometry>
        </mxCell>
        <mxCell id="ZROLAFJUCEpGGBxkQ6_s-23" value="" style="endArrow=classic;html=1;entryX=0;entryY=0.5;entryDx=0;entryDy=0;fillColor=#6a00ff;strokeColor=#3700CC;" edge="1" parent="1" target="ZROLAFJUCEpGGBxkQ6_s-20">
          <mxGeometry width="50" height="50" relative="1" as="geometry">
            <mxPoint x="200" y="340" as="sourcePoint" />
            <mxPoint x="440" y="330" as="targetPoint" />
          </mxGeometry>
        </mxCell>
        <mxCell id="ZROLAFJUCEpGGBxkQ6_s-24" value="Material3 For Button" style="text;strokeColor=none;align=center;fillColor=none;html=1;verticalAlign=middle;whiteSpace=wrap;rounded=0;fontStyle=1" vertex="1" parent="1">
          <mxGeometry x="300" y="570" width="200" height="30" as="geometry" />
        </mxCell>
      </root>
    </mxGraphModel>
  </diagram>
</mxfile>
